<?xml version="1.0" standalone="no"?>
<!DOCTYPE svg PUBLIC "-//W3C//DTD SVG 20010904//EN"
 "http://www.w3.org/TR/2001/REC-SVG-20010904/DTD/svg10.dtd">
<svg version="1.0" xmlns="http://www.w3.org/2000/svg"
 width="1024.000000pt" height="1024.000000pt" viewBox="0 0 1024.000000 1024.000000"
 preserveAspectRatio="xMidYMid meet">
<metadata>
Created by potrace 1.14, written by Peter Selinger 2001-2017
</metadata>
<g transform="translate(0.000000,1024.000000) scale(0.100000,-0.100000)"
fill="#000000" stroke="none">
<path d="M0 5120 l0 -5120 5120 0 5120 0 0 5120 0 5120 -5120 0 -5120 0 0
-5120z m5366 4295 c4 -8 16 -15 28 -15 11 0 28 -5 36 -11 11 -7 6 -8 -20 -3
-19 4 -45 7 -57 6 -13 -1 -23 3 -23 8 0 6 8 10 18 11 14 0 14 2 -3 9 -18 8
-18 9 -2 9 10 1 20 -6 23 -14z m51 9 c-3 -3 -12 -4 -19 -1 -8 3 -5 6 6 6 11 1
17 -2 13 -5z m-602 -14 c13 -6 15 -9 5 -9 -8 0 -22 4 -30 9 -18 12 -2 12 25 0z
m128 3 c-13 -2 -33 -2 -45 0 -13 2 -3 4 22 4 25 0 35 -2 23 -4z m370 0 c-7 -2
-21 -2 -30 0 -10 3 -4 5 12 5 17 0 24 -2 18 -5z m-570 -10 c-7 -2 -21 -2 -30
0 -10 3 -4 5 12 5 17 0 24 -2 18 -5z m484 1 c-3 -3 -12 -4 -19 -1 -8 3 -5 6 6
6 11 1 17 -2 13 -5z m-580 -10 c-3 -3 -12 -4 -19 -1 -8 3 -5 6 6 6 11 1 17 -2
13 -5z m803 -24 c264 -35 490 -87 725 -166 61 -20 124 -36 140 -36 19 1 25 -1
17 -7 -9 -5 8 -15 50 -31 35 -12 89 -36 121 -51 31 -16 57 -27 57 -25 0 3 25
-11 56 -29 48 -29 60 -33 78 -23 11 7 27 11 34 10 6 -2 12 1 12 7 0 5 -6 12
-12 15 -7 3 -1 3 13 0 24 -5 26 -3 22 20 -4 21 -2 26 16 26 16 0 21 -6 21 -26
0 -16 12 -37 31 -55 33 -31 31 -53 -4 -44 -12 2 -16 2 -9 -1 6 -3 10 -9 7 -14
-3 -5 4 -11 15 -15 11 -3 20 -11 20 -16 0 -6 -8 -6 -20 1 -11 6 -20 7 -20 3 0
-12 59 -43 78 -42 10 1 7 4 -8 8 -14 4 -24 14 -22 22 2 7 -4 19 -13 25 -12 9
-13 14 -4 19 6 4 15 2 19 -5 5 -7 8 -2 8 14 0 35 11 45 26 23 7 -9 18 -17 24
-17 7 0 19 -11 28 -25 9 -14 25 -25 36 -25 14 0 19 -5 16 -17 -3 -13 1 -18 16
-19 16 -1 21 5 22 27 1 16 -2 27 -5 24 -4 -2 -13 0 -20 4 -9 6 -5 9 12 9 15 0
37 -12 53 -29 15 -16 36 -29 45 -29 18 0 69 -44 69 -60 0 -4 -6 -10 -12 -13
-10 -4 -10 -7 0 -18 9 -9 12 -10 12 -1 0 7 15 12 36 12 27 0 37 -5 41 -20 4
-16 14 -20 44 -20 32 0 39 -3 39 -20 0 -17 7 -20 40 -20 40 0 40 0 40 -39 0
-39 1 -40 38 -43 30 -2 38 -7 40 -25 3 -19 10 -23 43 -23 27 0 39 -4 39 -14 0
-8 -6 -16 -12 -18 -8 -3 -3 -10 12 -17 14 -7 34 -23 45 -36 13 -15 35 -25 65
-28 25 -4 46 -6 48 -6 1 -1 2 -8 2 -16 0 -11 11 -15 40 -15 l40 0 -3 -62 -2
-63 43 4 c40 3 42 1 42 -23 0 -24 4 -26 40 -26 22 0 40 4 40 9 0 14 37 1 56
-20 17 -18 16 -19 -19 -19 -21 0 -37 -4 -37 -10 0 -5 18 -10 40 -10 22 0 40
-4 40 -10 0 -5 9 -10 20 -10 13 0 20 -7 20 -20 0 -17 7 -20 40 -20 l40 0 0
-40 c0 -33 3 -40 20 -40 16 0 20 -7 20 -34 0 -43 8 -48 71 -48 l49 1 0 -40 c0
-28 4 -39 15 -39 11 0 15 -11 15 -40 0 -27 5 -43 15 -46 8 -4 15 -15 15 -25 0
-14 7 -19 30 -19 28 0 30 -2 30 -40 l0 -40 40 0 c28 0 40 -4 40 -14 0 -10 13
-16 38 -18 l37 -3 0 -80 0 -81 63 1 62 1 0 -47 c0 -37 5 -51 21 -62 12 -9 19
-23 17 -35 -2 -12 9 -31 30 -50 27 -25 32 -37 32 -76 0 -25 5 -46 10 -46 6 0
10 7 10 15 0 8 5 15 10 15 6 0 13 -7 16 -15 4 -8 15 -15 25 -15 15 0 19 -7 19
-40 0 -36 2 -40 26 -40 l26 0 -7 -80 -7 -80 26 0 c24 0 26 -4 26 -40 0 -22 5
-40 10 -40 6 0 10 -18 10 -40 0 -33 3 -40 20 -40 17 0 20 -7 20 -41 0 -24 4
-38 10 -34 6 3 10 40 10 81 0 67 2 74 20 74 18 0 20 -7 20 -80 0 -64 3 -80 15
-80 11 0 15 -11 15 -40 0 -29 -4 -40 -15 -40 -21 0 -19 -18 5 -32 16 -10 20
-24 20 -70 0 -45 3 -58 15 -58 11 0 15 -11 15 -40 0 -32 4 -40 18 -40 14 0 17
-7 14 -40 -4 -37 -2 -40 22 -40 24 0 26 -4 26 -40 0 -34 3 -40 20 -40 12 0 36
-16 55 -35 30 -29 35 -41 35 -80 0 -25 5 -45 10 -45 6 0 10 -33 10 -80 0 -60
3 -80 13 -80 15 0 27 -151 27 -322 0 -45 4 -78 10 -78 6 0 10 -18 10 -40 0
-22 5 -40 10 -40 6 0 10 7 10 16 0 9 6 14 13 12 9 -4 13 -50 15 -176 2 -164 3
-172 22 -172 18 0 20 -7 20 -80 0 -73 -2 -80 -20 -80 -18 0 -20 -7 -22 -82 -1
-46 -1 -136 1 -200 3 -104 1 -118 -13 -118 -12 0 -16 -10 -16 -40 0 -22 5 -40
10 -40 6 0 10 -33 10 -80 0 -52 4 -80 11 -80 8 0 9 -45 5 -154 -4 -116 -2
-156 7 -159 18 -6 16 -84 -3 -83 -8 1 -18 9 -22 18 -13 32 -23 19 -23 -31 0
-27 3 -47 7 -45 4 2 9 0 12 -5 3 -5 -1 -11 -9 -15 -11 -4 -23 11 -44 54 -19
41 -24 60 -15 60 13 0 30 -36 26 -57 -2 -6 2 -14 8 -18 21 -13 9 47 -15 73
-19 21 -27 24 -37 14 -9 -9 -18 -5 -39 21 -16 17 -28 29 -29 24 0 -4 18 -27
40 -50 54 -59 62 -111 25 -155 -35 -42 -54 -42 -52 1 2 35 17 58 31 49 5 -3 6
0 2 7 -4 6 -12 8 -18 5 -7 -5 -9 -1 -5 9 3 10 2 17 -3 17 -6 0 -10 7 -10 16 0
8 -4 12 -10 9 -5 -3 -7 0 -4 8 3 8 -2 19 -10 26 -9 7 -18 29 -22 50 -4 20 -9
39 -11 43 -7 14 -31 -16 -25 -32 5 -13 4 -13 -13 0 -17 14 -18 13 -12 -3 4
-10 3 -16 -2 -13 -5 3 -24 -4 -42 -17 -19 -12 -45 -28 -59 -34 -14 -7 -74 -45
-135 -84 -60 -39 -133 -83 -161 -98 -27 -15 -57 -32 -65 -36 -16 -11 -16 -11
-89 -24 -84 -15 -178 -7 -233 19 -77 37 -193 126 -348 271 -15 14 -44 39 -65
55 -104 81 -287 262 -251 249 9 -4 17 -11 17 -16 0 -5 5 -9 12 -9 6 0 3 9 -8
21 -12 13 -18 32 -16 52 3 36 37 126 65 174 10 18 15 38 11 45 -5 10 -4 11 7
1 18 -18 32 -16 25 2 -3 9 1 18 9 21 19 8 19 24 0 24 -9 0 -15 9 -15 22 0 21
0 21 16 2 15 -18 15 -18 9 9 -3 15 -1 27 5 27 5 0 10 11 10 25 0 19 5 25 23
25 18 0 19 2 7 10 -12 8 -12 10 -1 10 11 0 11 3 1 15 -11 13 -8 15 16 16 25 1
24 2 -11 11 -22 5 -78 7 -125 4 -82 -5 -84 -5 -51 10 116 52 342 39 527 -31
108 -40 273 -136 474 -275 102 -70 197 -135 212 -144 l26 -17 -9 38 c-6 21
-17 73 -25 116 -12 65 -52 172 -54 144 0 -5 5 -17 10 -27 6 -11 15 -55 21 -97
13 -106 14 -111 22 -119 14 -14 7 -24 -11 -15 -13 7 -22 37 -35 117 -24 139
-79 292 -118 330 -20 19 -28 23 -24 11 4 -9 11 -17 17 -17 5 0 6 -5 2 -12 -5
-8 -13 -4 -26 12 -20 24 -32 23 -23 -2 3 -9 17 -20 31 -26 20 -10 24 -9 25 6
0 11 2 13 6 4 5 -13 -23 -52 -37 -52 -4 0 -7 8 -6 17 0 10 -7 18 -19 20 -16 1
-16 1 -2 -3 31 -9 10 -20 -30 -15 -35 4 -36 5 -13 12 23 6 23 7 3 8 -33 2 -39
21 -6 22 l28 1 -30 13 -30 13 30 4 c24 2 12 9 -64 34 -77 25 -95 35 -98 53 -2
14 2 21 15 21 15 1 15 2 -2 15 -11 8 -16 18 -13 22 4 3 0 15 -10 25 -18 20
-11 23 18 8 41 -23 16 8 -30 35 l-49 30 83 85 c46 47 101 105 122 130 21 24
45 52 54 61 10 9 30 39 45 65 23 39 29 61 29 111 0 45 -5 67 -17 79 -15 16
-17 15 -23 -19 -4 -19 -19 -47 -35 -62 -27 -26 -29 -26 -54 -10 -15 10 -29 15
-33 12 -3 -4 2 -9 11 -13 22 -9 20 -22 -10 -61 -23 -30 -76 -67 -85 -59 -2 2
-17 6 -34 10 -29 7 -29 7 -11 -13 18 -19 18 -22 2 -46 -29 -44 -72 -64 -113
-53 -19 5 -37 7 -39 5 -3 -3 7 -7 21 -11 24 -6 36 -26 15 -26 -5 0 -10 -5 -10
-11 0 -15 -39 -47 -80 -65 -31 -13 -41 -13 -94 0 -33 9 -62 19 -65 24 -3 5
-13 12 -21 15 -11 4 -9 7 8 13 18 5 20 9 10 15 -10 7 -9 9 4 9 11 0 15 5 12
14 -3 7 2 21 11 30 9 9 12 16 6 16 -6 0 -11 4 -11 9 0 4 39 0 87 -10 90 -18
120 -19 61 -1 -122 36 -146 44 -168 58 l-25 15 24 -7 c19 -5 23 -3 18 10 -4 9
-3 16 2 16 4 0 14 12 22 28 8 15 18 30 24 34 5 4 7 9 4 12 -7 7 -69 -16 -69
-26 0 -4 -5 -8 -11 -8 -6 0 -27 -16 -47 -34 -20 -19 -38 -33 -40 -31 -9 8 10
45 20 39 6 -4 8 -2 4 4 -3 6 10 77 30 159 62 257 85 445 87 708 2 199 0 235
-15 265 -9 19 -26 67 -37 105 -105 383 -193 618 -327 881 -194 382 -445 693
-807 1002 -21 18 -43 29 -49 26 -6 -4 -8 -3 -5 3 4 6 -44 49 -106 95 -140 105
-134 102 -155 86 -15 -11 -16 -11 -4 3 11 14 2 23 -65 66 -364 235 -734 367
-1197 428 -65 8 -136 14 -159 14 -23 -1 10 -7 73 -14 132 -15 340 -51 379 -67
14 -6 35 -12 46 -14 11 -2 38 -8 60 -14 22 -6 53 -13 69 -15 38 -6 98 -25 112
-36 6 -5 13 -6 16 -3 5 5 56 -15 110 -42 14 -8 33 -14 41 -14 8 0 30 -10 48
-23 19 -13 39 -22 45 -20 6 2 17 -3 24 -12 7 -8 20 -15 29 -15 9 0 41 -16 71
-35 30 -19 60 -35 68 -35 7 0 11 -4 8 -8 -2 -4 4 -14 16 -21 11 -7 17 -8 13
-2 -12 20 11 11 34 -13 14 -15 29 -22 39 -19 10 4 13 2 8 -5 -7 -12 31 -42 54
-42 9 0 25 -7 36 -16 10 -8 14 -13 7 -10 -6 4 -15 1 -19 -5 -4 -8 -3 -9 4 -5
7 4 12 1 12 -8 0 -13 26 -80 38 -96 2 -2 7 2 12 10 8 13 10 12 10 -2 0 -11 5
-15 15 -12 18 7 20 -12 3 -20 -7 -3 -2 -3 12 0 14 4 22 3 18 -1 -11 -12 11
-35 33 -35 11 0 19 -4 19 -9 0 -6 13 -18 29 -27 17 -10 28 -21 25 -26 -3 -4 4
-8 15 -8 12 0 20 -5 19 -12 -2 -6 10 -18 26 -27 16 -9 42 -28 58 -43 32 -32
39 -33 57 -15 11 10 12 8 4 -8 -8 -17 -1 -27 39 -64 27 -25 46 -37 43 -29 -4
9 -2 18 2 21 5 3 7 -18 5 -47 -2 -39 1 -56 12 -65 9 -8 16 -19 16 -27 0 -24
23 -63 33 -57 6 3 7 1 4 -4 -4 -6 5 -23 18 -37 14 -15 25 -30 25 -34 0 -4 14
-22 30 -41 17 -18 30 -38 30 -42 0 -5 8 -9 18 -9 15 0 15 -2 2 -11 -11 -8 -12
-12 -2 -16 8 -3 -2 -21 -31 -53 -50 -55 -97 -141 -97 -176 0 -14 10 -36 23
-49 31 -34 137 -84 205 -97 31 -6 63 -19 69 -27 11 -14 14 -14 24 -1 9 13 10
12 5 -2 -4 -13 0 -18 12 -18 15 0 15 -2 2 -10 -9 -6 -11 -10 -3 -10 7 0 10 -6
7 -14 -3 -8 4 -56 16 -108 11 -51 25 -113 31 -138 5 -25 8 -126 6 -225 -3
-143 -7 -188 -21 -220 -10 -24 -15 -53 -12 -72 2 -18 2 -33 -2 -33 -12 0 -45
-117 -40 -144 3 -14 1 -23 -4 -20 -4 3 -10 -1 -12 -8 -2 -7 -13 -42 -25 -78
-12 -36 -21 -75 -21 -87 0 -13 -5 -23 -11 -23 -7 0 -9 -11 -6 -29 4 -20 2 -31
-8 -35 -8 -3 -15 -16 -15 -29 0 -13 -5 -28 -10 -33 -6 -6 -12 -33 -14 -60 -5
-66 -4 -64 -23 -57 -14 5 -15 1 -10 -24 4 -21 1 -35 -8 -43 -8 -7 -15 -21 -15
-30 0 -10 -3 -20 -7 -22 -16 -7 -45 -72 -34 -76 6 -2 11 -8 11 -13 0 -4 -6 -6
-14 -3 -10 4 -14 -5 -14 -37 -1 -23 -6 -47 -11 -52 -6 -6 -11 -19 -11 -29 0
-10 -6 -21 -12 -23 -7 -3 -14 -19 -14 -37 -1 -17 -9 -37 -18 -44 -10 -7 -18
-16 -18 -21 0 -4 -4 -17 -9 -28 -4 -11 -10 -32 -13 -46 -3 -14 -17 -38 -31
-55 -25 -29 -33 -50 -15 -39 6 3 10 2 10 -4 0 -5 -4 -13 -10 -16 -5 -3 -10
-14 -10 -23 0 -10 -10 -28 -22 -42 -13 -14 -25 -36 -26 -50 -2 -14 -9 -29 -14
-35 -8 -7 -8 -6 -3 4 5 9 4 12 -3 7 -7 -4 -12 -14 -12 -21 0 -8 -10 -31 -22
-52 -49 -86 -78 -140 -97 -180 -11 -24 -25 -43 -31 -43 -5 0 -22 -25 -36 -55
-15 -30 -38 -66 -53 -78 -14 -13 -27 -29 -29 -36 -4 -18 -267 -291 -280 -291
-2 0 -27 -22 -54 -50 -27 -27 -53 -50 -59 -50 -5 0 -9 -4 -9 -10 0 -5 -19 -22
-42 -38 -24 -17 -68 -53 -98 -82 -30 -29 -71 -63 -90 -75 -46 -30 -280 -257
-280 -272 0 -6 -3 -13 -7 -15 -11 -4 -58 -70 -66 -90 -3 -10 -10 -18 -15 -18
-5 0 -17 -18 -27 -40 -10 -22 -22 -40 -27 -40 -5 0 -13 -10 -19 -23 -10 -22
-13 -20 -91 60 -45 46 -88 83 -95 83 -8 0 -11 5 -7 12 5 8 2 9 -11 4 -11 -4
-26 0 -39 11 -20 17 -20 17 1 -7 30 -35 32 -79 5 -117 -12 -17 -22 -38 -22
-46 0 -9 -5 -17 -12 -19 -7 -3 -12 -23 -12 -46 -1 -28 -5 -41 -13 -38 -17 7
-24 -6 -11 -21 9 -11 9 -16 -1 -23 -10 -6 -8 -10 8 -15 12 -3 19 -10 17 -14
-3 -4 4 -13 16 -20 11 -7 17 -8 14 -2 -4 7 -1 8 8 5 9 -3 13 -10 10 -15 -3 -5
41 -31 98 -58 57 -27 94 -50 83 -50 -11 -1 -16 -5 -10 -9 6 -4 10 -20 11 -37
2 -84 49 -206 101 -265 7 -8 24 -29 37 -45 13 -17 41 -40 60 -50 20 -11 36
-23 36 -28 0 -32 162 -210 202 -222 13 -4 30 -13 38 -20 41 -34 136 -53 320
-62 354 -18 495 -2 730 86 261 98 446 308 466 529 4 44 11 72 18 72 25 0 66
-26 61 -38 -3 -10 3 -12 23 -10 25 3 27 1 24 -27 -2 -16 -1 -27 3 -23 9 9 135
-100 135 -117 0 -4 16 -23 35 -42 19 -19 35 -43 35 -53 0 -12 7 -20 18 -20 9
0 13 -4 7 -8 -19 -14 -54 -88 -70 -151 -10 -40 -15 -92 -13 -138 2 -44 -1 -73
-7 -73 -5 0 -3 -5 5 -10 12 -8 10 -10 -10 -11 -14 0 -19 -3 -12 -6 19 -7 -26
-29 -93 -44 -30 -7 -53 -14 -51 -17 3 -2 36 3 75 12 38 9 84 16 100 16 17 0
58 9 92 21 56 19 76 21 257 17 169 -4 207 -8 267 -27 66 -22 137 -63 133 -79
-1 -4 2 -19 6 -34 6 -20 2 -40 -15 -75 -24 -50 -100 -133 -121 -133 -7 0 -20
-12 -29 -28 -8 -15 -42 -42 -75 -59 -32 -18 -53 -33 -46 -33 6 0 12 -4 12 -9
0 -5 -9 -7 -20 -4 -11 3 -20 0 -20 -6 0 -6 -7 -11 -16 -11 -8 0 -13 -4 -10 -9
6 -9 -122 -76 -214 -111 -163 -64 -352 -121 -449 -136 l-108 -17 -46 32 c-26
18 -51 30 -56 27 -20 -13 -255 -67 -267 -62 -8 3 -14 14 -14 24 0 15 -6 18
-42 14 -107 -11 -253 2 -333 31 -47 16 -75 47 -75 81 -1 28 -2 29 -14 14 -7
-10 -18 -18 -24 -18 -6 0 -13 -6 -16 -12 -3 -7 -3 -3 -1 9 3 12 0 25 -6 29 -8
5 -9 3 -5 -5 5 -8 3 -12 -5 -10 -22 3 -79 -13 -74 -20 2 -4 -22 -8 -53 -8 -31
0 -77 -3 -102 -6 -256 -33 -612 -20 -695 26 -11 6 -29 12 -40 13 -64 7 -73 9
-69 16 3 4 -2 8 -11 8 -27 0 -145 41 -145 51 0 5 -8 9 -18 9 -10 0 -27 7 -38
15 -10 8 -25 15 -33 15 -8 0 -19 7 -25 16 -11 14 -30 21 -63 23 -7 1 -13 8
-13 16 0 8 -4 15 -9 15 -4 0 -21 12 -37 27 -29 28 -32 29 -58 32 -7 0 -38 25
-67 54 -61 60 -122 107 -139 107 -6 0 -9 4 -6 9 3 5 -9 14 -27 21 -17 8 -39
19 -47 26 -14 12 -56 24 -134 39 -15 3 -26 8 -23 11 5 5 -23 39 -76 94 -16 16
-26 33 -23 38 3 5 1 22 -4 38 l-10 29 4 -30 c3 -17 1 -37 -5 -45 -6 -11 -9 -8
-9 13 0 15 -4 27 -10 27 -5 0 -10 7 -10 15 0 8 5 15 10 15 6 0 10 5 10 11 0 6
-6 9 -14 6 -12 -5 -14 28 -13 216 2 159 0 202 -6 152 -13 -107 -2 -456 17
-560 19 -107 60 -257 93 -339 12 -33 21 -62 18 -64 -7 -7 -259 17 -375 34
-314 49 -684 155 -772 222 -27 20 -48 39 -48 42 0 3 -17 23 -37 46 -21 22 -39
47 -41 55 -4 18 -32 40 -44 33 -5 -3 -17 0 -26 7 -9 7 22 -27 69 -77 109 -113
148 -168 205 -288 49 -103 58 -146 34 -153 -13 -4 -13 -3 0 7 12 9 8 10 -19 5
-23 -5 -36 -3 -42 6 -6 10 -9 11 -9 2 0 -8 -14 -13 -34 -13 -19 0 -38 -4 -41
-10 -4 -6 18 -10 59 -10 47 0 87 -8 145 -30 95 -35 144 -64 191 -116 l35 -38
-47 41 c-25 23 -70 54 -100 69 -48 25 -65 28 -186 32 -164 5 -234 -9 -379 -79
-106 -51 -202 -127 -244 -195 -12 -19 -23 -33 -26 -30 -9 8 40 92 84 144 25
29 43 56 39 59 -3 4 -6 1 -6 -6 0 -8 -7 -10 -22 -5 -21 6 -22 5 -8 -10 12 -16
12 -17 -6 -14 -13 2 -19 -3 -19 -14 0 -20 -21 -43 -38 -43 -6 0 -14 -11 -18
-25 -4 -14 -7 -19 -8 -12 -1 13 -157 252 -189 288 -19 23 -90 45 -78 25 4 -6
4 -16 1 -21 -4 -6 -38 21 -77 62 -39 40 -75 72 -80 70 -5 -1 -7 2 -3 8 3 5 1
10 -4 10 -6 0 -41 21 -78 46 -103 71 -206 114 -270 114 -21 0 -32 4 -28 10 13
21 150 -16 219 -59 32 -19 43 -21 58 -12 10 6 24 9 30 5 29 -18 -7 17 -54 53
-68 51 -183 94 -276 102 -60 5 -72 4 -67 -8 4 -11 2 -11 -8 -3 -8 7 -17 9 -20
5 -4 -3 -7 -3 -7 0 0 4 18 18 39 33 42 27 45 48 9 60 -27 8 -148 93 -176 124
-34 37 -72 120 -72 158 0 30 -2 32 -15 18 -8 -8 -19 -32 -25 -53 -9 -35 -9
-33 -6 22 2 33 8 69 12 80 7 17 6 18 -8 5 -9 -8 -14 -17 -12 -19 7 -8 -17 -41
-27 -36 -5 4 -9 -1 -9 -10 0 -8 -9 -40 -19 -70 -11 -30 -16 -55 -11 -57 4 -2
10 -47 14 -100 l7 -97 -30 12 c-17 6 -31 17 -31 24 0 7 -5 13 -11 13 -5 0 -8
-4 -5 -9 4 -5 -3 -7 -14 -4 -11 3 -20 9 -20 13 0 4 -9 10 -20 13 -11 3 -20 1
-20 -5 0 -5 -5 -6 -11 -2 -6 3 -8 17 -4 31 5 20 3 24 -9 20 -11 -5 -14 4 -13
41 2 40 -1 47 -15 44 -20 -3 -24 14 -5 21 7 3 5 6 -6 6 -10 1 -37 10 -59 21
-23 11 -47 20 -54 20 -6 0 -22 8 -35 19 -13 10 -29 16 -36 14 -7 -2 -22 1 -34
7 -17 10 -19 14 -8 21 11 7 10 9 -3 9 -10 0 -18 5 -18 10 0 6 5 10 10 10 7 0
6 9 -2 23 -13 22 -19 149 -7 141 4 -2 10 3 13 12 4 9 2 13 -5 8 -8 -4 -9 1 -4
17 9 28 43 79 53 79 4 0 13 10 20 23 7 12 -15 -7 -50 -43 -67 -69 -141 -195
-153 -263 -4 -20 -11 -40 -16 -43 -13 -8 -11 7 11 71 11 32 20 71 20 87 0 16
4 27 9 24 4 -3 6 6 3 19 -3 18 0 25 11 25 8 0 18 7 21 16 5 13 4 14 -7 6 -8
-7 -17 -9 -20 -6 -10 11 -37 -67 -31 -92 4 -14 -1 -32 -11 -46 l-17 -23 8 25
c11 39 13 100 2 94 -6 -4 -8 -18 -5 -32 9 -47 -5 -56 -24 -15 -10 21 -18 46
-19 56 0 9 -6 16 -12 15 -9 -2 -14 13 -16 45 -2 26 -7 45 -13 42 -5 -4 -9 11
-9 34 0 30 -4 41 -15 41 -12 0 -15 16 -15 80 0 63 -3 80 -14 80 -10 0 -16 13
-18 38 -2 30 -7 38 -25 40 -22 3 -23 8 -23 82 l0 79 -42 3 -43 3 0 75 c0 52 4
75 12 75 7 0 16 5 22 10 13 14 19 152 6 152 -5 0 -22 3 -37 6 -15 3 -30 1 -34
-4 -3 -5 -2 -9 3 -8 4 1 18 1 31 0 21 -1 22 -5 22 -74 l0 -73 -37 -2 -36 -3 5
108 c7 135 0 213 -18 213 -12 0 -14 55 -14 320 l0 320 -22 1 c-67 3 -63 -3
-63 82 0 67 -2 77 -17 77 -14 0 -18 9 -18 40 0 29 4 40 15 40 11 0 15 11 15
40 0 33 3 40 20 40 18 0 20 7 20 74 l0 74 -35 6 c-21 4 -35 13 -35 21 0 8 3
14 7 14 32 -5 63 3 63 16 0 8 -7 15 -15 15 -8 0 -15 5 -15 10 0 6 -8 10 -17
10 -13 0 -14 3 -6 8 9 6 7 13 -8 26 -12 9 -24 15 -27 12 -7 -8 -42 45 -42 63
0 10 9 7 27 -11 27 -25 113 -48 113 -30 0 5 70 12 156 15 86 3 160 9 163 14 3
4 22 9 41 10 19 1 71 7 115 13 145 19 181 17 211 -10 32 -31 136 -188 193
-293 23 -42 51 -82 61 -87 25 -13 92 -13 127 1 15 7 46 15 68 19 l40 7 -36 2
c-31 1 -39 6 -49 31 -7 17 -16 30 -20 30 -4 0 -36 44 -71 98 -146 226 -170
262 -180 268 -6 4 -3 -6 7 -22 18 -29 18 -29 -2 -11 -11 9 -24 14 -28 10 -4
-4 -4 0 0 10 5 13 1 17 -20 17 -28 0 -32 10 -16 40 7 13 7 21 -2 26 -7 4 -8 3
-4 -4 11 -18 -32 -35 -62 -24 -15 5 -71 7 -126 4 -55 -2 -96 -1 -93 4 7 13
-97 8 -122 -5 -25 -14 -283 -26 -261 -13 21 13 92 22 186 23 44 0 87 5 95 10
10 6 5 9 -16 9 -21 -1 -328 -24 -392 -30 -1 0 0 -8 3 -17 5 -16 4 -16 -10 1
-9 12 -23 17 -36 13 -23 -6 -25 2 -7 27 10 14 42 20 152 31 330 34 324 32 150
30 -88 -2 -168 -6 -177 -10 -9 -4 -25 -2 -35 5 -16 10 -15 10 5 5 16 -5 22 -2
22 10 0 9 4 13 10 10 11 -7 59 25 60 39 0 4 -9 6 -20 3 -11 -3 -18 -1 -15 3 3
5 -1 10 -7 13 -14 4 26 9 80 9 27 -1 32 3 31 21 -1 17 -2 18 -6 5 -2 -10 -9
-18 -14 -18 -12 0 -12 57 1 65 5 3 10 15 10 26 0 12 7 19 18 19 18 0 19 8 14
100 l-5 100 32 0 c30 0 31 2 31 40 0 29 4 40 15 40 11 0 15 11 15 40 0 27 4
40 14 40 11 0 15 34 21 160 l7 160 34 0 c24 0 34 5 34 15 0 11 11 15 38 15
l39 0 6 98 c4 53 7 118 7 145 l0 47 45 0 45 0 0 40 c0 29 4 40 15 40 23 0 21
77 -3 82 -27 5 50 78 83 78 l26 0 -3 91 c-2 67 0 93 10 96 6 3 12 -2 12 -11 0
-24 9 -20 45 20 33 35 33 36 38 13 3 -18 5 -14 6 11 1 27 4 31 11 20 9 -13 10
-13 10 0 0 13 1 13 10 0 7 -11 10 -2 10 33 0 43 2 47 25 47 23 0 25 4 25 40 0
36 3 40 24 40 44 0 56 10 56 46 0 24 5 34 15 34 11 0 15 11 15 40 0 42 2 43
62 43 14 0 18 8 18 38 0 27 4 39 14 39 10 0 16 13 18 38 3 35 5 37 41 40 24 2
37 8 37 18 0 10 12 14 40 14 l40 0 0 40 0 40 40 0 c29 0 40 -4 40 -15 0 -8 5
-15 11 -15 8 0 9 24 4 80 l-7 80 35 0 c19 0 38 -6 40 -12 3 -7 6 10 6 39 1 42
4 51 16 47 10 -4 15 -20 15 -50 0 -37 3 -44 20 -44 11 0 20 5 20 10 0 6 -7 10
-15 10 -11 0 -15 11 -15 40 0 33 3 40 20 40 17 0 20 7 20 40 0 29 4 40 15 40
11 0 15 11 15 39 0 37 2 40 29 39 28 -1 29 -3 33 -55 1 -29 -1 -53 -5 -53 -5
0 -5 -4 -2 -10 3 -5 1 -10 -4 -10 -6 0 -11 -7 -11 -15 0 -8 8 -15 18 -15 13 0
18 10 19 42 2 29 9 48 23 58 11 8 21 27 22 43 2 28 12 35 23 17 3 -5 1 -10 -4
-10 -6 0 -11 -7 -11 -16 0 -8 4 -13 9 -10 5 4 12 0 15 -6 3 -7 3 -3 1 9 -3 12
-1 24 5 28 5 3 10 14 10 23 0 15 -2 15 -10 2 -9 -13 -10 -13 -10 0 0 8 5 22
10 30 9 13 10 13 11 0 0 -10 3 -8 8 5 5 11 5 27 0 36 -10 19 10 69 27 69 18 0
26 31 13 46 -9 11 -8 14 1 14 9 0 9 4 -1 16 -12 15 -11 16 7 10 26 -8 58 32
43 55 -8 12 -10 12 -19 -1 -7 -11 -10 -11 -10 -2 0 14 21 24 53 26 15 1 22 8
23 21 0 26 -15 47 -29 38 -6 -4 -7 -1 -2 6 5 9 14 6 34 -11 14 -13 23 -19 19
-14 -10 12 11 38 25 29 6 -4 8 2 4 16 -4 18 -3 20 9 10 19 -16 18 1 -3 30 -9
14 -11 21 -5 17 6 -3 13 -2 16 2 3 5 17 8 32 6 17 -2 44 9 75 31 68 47 152 76
232 83 37 2 67 9 67 13 0 5 10 9 23 9 18 0 19 -2 7 -10 -12 -7 -8 -10 15 -10
17 0 37 5 45 11 12 8 8 9 -15 5 -16 -3 -25 -3 -18 0 7 3 9 12 6 20 -4 10 0 12
13 8 11 -4 24 -11 31 -16 7 -6 18 -6 24 -2 9 5 7 10 -7 15 -16 6 -15 8 8 8 36
1 31 -27 -8 -44 -16 -8 -23 -14 -15 -14 7 -1 29 8 47 20 37 22 44 32 17 22
-11 -4 -14 -3 -9 5 4 8 -1 15 -14 20 -19 7 -18 9 15 25 41 20 56 16 50 -13 -4
-19 -3 -19 25 2 27 20 31 38 9 38 -6 0 -7 -5 -3 -11 4 -8 0 -8 -15 0 -11 7
-21 13 -21 15 0 2 42 -1 75 -6 6 -1 42 16 80 38 39 21 98 52 132 68 34 16 60
33 57 38 -3 4 2 5 10 2 8 -3 27 1 43 9 88 46 379 129 578 166 346 64 772 76
1115 31z m70 10 c0 -5 -2 -10 -4 -10 -3 0 -8 5 -11 10 -3 6 -1 10 4 10 6 0 11
-4 11 -10z m-1270 -40 c-8 -5 -19 -10 -25 -10 -5 0 -3 5 5 10 8 5 20 10 25 10
6 0 3 -5 -5 -10z m1507 4 c-3 -3 -12 -4 -19 -1 -8 3 -5 6 6 6 11 1 17 -2 13
-5z m-1570 -20 c-3 -3 -12 -4 -19 -1 -8 3 -5 6 6 6 11 1 17 -2 13 -5z m1673
-10 c0 -2 -7 -4 -15 -4 -8 0 -15 4 -15 10 0 5 7 7 15 4 8 -4 15 -8 15 -10z
m-1745 -4 c8 -13 -5 -13 -25 0 -13 8 -13 10 2 10 9 0 20 -4 23 -10z m1795 0
c-8 -5 -22 -9 -30 -9 -10 0 -8 3 5 9 27 12 43 12 25 0z m-2030 -55 c0 -1 -8
-5 -18 -7 -11 -3 -19 0 -19 7 0 7 8 10 19 7 10 -2 18 -6 18 -7z m2305 5 c3 -6
-1 -7 -9 -4 -18 7 -21 14 -7 14 6 0 13 -4 16 -10z m-92 -7 c-7 -2 -19 -2 -25
0 -7 3 -2 5 12 5 14 0 19 -2 13 -5z m47 -13 c0 -5 -4 -10 -10 -10 -5 0 -10 5
-10 10 0 6 5 10 10 10 6 0 10 -4 10 -10z m255 0 c3 -5 -1 -10 -10 -10 -9 0
-13 5 -10 10 3 6 8 10 10 10 2 0 7 -4 10 -10z m-183 -16 c-13 -9 -26 -13 -30
-9 -8 8 17 25 38 25 9 0 6 -6 -8 -16z m23 -14 c-3 -5 -12 -10 -18 -10 -7 0 -6
4 3 10 19 12 23 12 15 0z m115 -25 c19 -5 22 -4 10 4 -8 6 -10 11 -4 11 6 0
17 -7 24 -15 6 -8 15 -13 20 -12 7 2 60 -49 60 -58 0 -2 -9 -1 -20 2 -11 3
-20 12 -20 20 0 11 -7 14 -22 10 -13 -3 -32 -1 -43 4 -16 7 -14 8 10 5 l30 -5
-34 15 c-18 8 -49 16 -67 18 -19 1 -36 5 -39 8 -7 7 61 2 95 -7z m110 5 c0 -5
-2 -10 -4 -10 -3 0 -8 5 -11 10 -3 6 -1 10 4 10 6 0 11 -4 11 -10z m-2770 -10
c-8 -5 -22 -9 -30 -9 -10 0 -8 3 5 9 27 12 43 12 25 0z m-40 -35 c-14 -8 -29
-14 -35 -14 -5 0 1 6 15 14 14 8 30 14 35 14 6 0 -1 -6 -15 -14z m2840 -30 c0
-8 -4 -15 -10 -15 -5 0 -7 7 -4 15 4 8 8 15 10 15 2 0 4 -7 4 -15z m-2920 -5
c-8 -5 -22 -9 -30 -9 -10 0 -8 3 5 9 27 12 43 12 25 0z m2965 0 c-3 -5 -14
-10 -23 -10 -15 0 -15 2 -2 10 20 13 33 13 25 0z m105 -3 c0 -6 14 -19 32 -26
18 -8 27 -16 21 -18 -7 -3 -9 -12 -6 -21 6 -15 4 -15 -9 -4 -11 9 -18 10 -23
2 -6 -9 12 -14 45 -11 11 1 10 -2 -4 -13 -16 -13 -20 -13 -38 4 -11 10 -26 16
-32 14 -7 -3 -19 2 -26 10 -7 9 -31 21 -53 27 -37 10 -39 12 -22 22 43 24 115
33 115 14z m80 -27 c0 -17 -3 -19 -19 -8 -21 13 -19 28 5 28 8 0 14 -9 14 -20z
m-3200 -6 c0 -2 -7 -4 -15 -4 -8 0 -15 4 -15 10 0 5 7 7 15 4 8 -4 15 -8 15
-10z m-40 -14 c0 -5 -5 -10 -11 -10 -5 0 -7 5 -4 10 3 6 8 10 11 10 2 0 4 -4
4 -10z m-37 -31 c-8 -8 -13 -7 -18 2 -5 8 -4 10 3 5 7 -4 12 -2 12 5 0 7 3 9
7 6 4 -4 2 -12 -4 -18z m3247 -205 c0 -2 -9 0 -20 6 -11 6 -20 13 -20 16 0 2
9 0 20 -6 11 -6 20 -13 20 -16z m-3850 11 c0 -2 -10 -9 -22 -15 -22 -11 -22
-10 -4 4 21 17 26 19 26 11z m3933 -96 c-4 -15 -8 -17 -14 -8 -6 11 4 28 18
29 0 0 -1 -9 -4 -21z m-4163 -159 c0 -5 -4 -10 -10 -10 -5 0 -10 5 -10 10 0 6
5 10 10 10 6 0 10 -4 10 -10z m-115 -127 c-6 -27 -6 -27 9 -9 18 22 21 14 6
-15 -6 -10 -15 -19 -20 -19 -11 0 -14 53 -3 63 12 12 13 7 8 -20z m4695 -27
c0 -2 -8 -10 -17 -17 -16 -13 -17 -12 -4 4 13 16 21 21 21 13z m-4655 -26 c3
-5 2 -10 -4 -10 -5 0 -13 5 -16 10 -3 6 -2 10 4 10 5 0 13 -4 16 -10z m-35
-25 c0 -8 -4 -16 -9 -19 -5 -3 -8 5 -7 18 1 25 16 26 16 1z m5605 -115 c18
-19 17 -20 -3 -20 -15 0 -22 6 -22 20 0 11 2 20 3 20 2 0 12 -9 22 -20z
m-5945 -240 c0 -17 -7 -20 -39 -20 -34 0 -38 3 -34 20 4 15 14 20 39 20 27 0
34 -4 34 -20z m7350 -2180 c0 -64 -3 -80 -15 -80 -12 0 -15 16 -15 80 0 64 3
80 15 80 12 0 15 -16 15 -80z m-8590 15 c0 -8 -7 -15 -16 -15 -14 0 -14 3 -4
15 7 8 14 15 16 15 2 0 4 -7 4 -15z m40 0 c0 -8 -7 -15 -15 -15 -16 0 -20 12
-8 23 11 12 23 8 23 -8z m-274 -325 c5 -13 6 -13 15 0 9 12 10 12 5 -3 -3 -10
-6 -24 -6 -30 0 -6 -7 -2 -15 9 -8 10 -14 30 -14 44 0 14 3 18 6 10 2 -8 7
-22 9 -30z m43 -85 c0 -5 -4 -3 -9 5 -5 8 -9 22 -9 30 0 16 17 -16 18 -35z
m8861 -85 c0 -64 -3 -80 -15 -80 -12 0 -15 16 -15 80 0 64 3 80 15 80 12 0 15
-16 15 -80z m-1291 -191 c38 -13 40 -26 4 -40 -15 -6 -30 -14 -33 -20 -4 -5
-14 -3 -26 5 -18 14 -17 15 16 31 29 13 30 15 8 10 -15 -3 -30 0 -34 7 -4 6
-3 8 4 4 6 -3 13 -2 17 4 8 12 5 12 44 -1z m439 -386 c-10 -2 -28 -2 -40 0
-13 2 -5 4 17 4 22 1 32 -1 23 -4z m-25 -20 c-7 -2 -19 -2 -25 0 -7 3 -2 5 12
5 14 0 19 -2 13 -5z m107 -12 c0 -6 -17 -7 -37 -4 -52 8 -54 13 -5 13 23 0 42
-4 42 -9z m-7980 -509 c0 -63 -3 -79 -15 -79 -12 0 -15 16 -15 79 0 63 3 78
15 78 12 0 15 -15 15 -78z m8750 -102 c0 -11 -7 -20 -15 -20 -8 0 -15 9 -15
20 0 11 7 20 15 20 8 0 15 -9 15 -20z m0 -80 c0 -11 -7 -20 -15 -20 -8 0 -15
9 -15 20 0 11 7 20 15 20 8 0 15 -9 15 -20z m-2461 -35 c104 -28 171 -59 241
-110 65 -47 143 -133 134 -147 -4 -7 -3 -8 4 -4 6 4 18 -6 27 -24 10 -20 12
-30 4 -30 -8 0 -8 -4 -1 -13 14 -16 -12 -114 -50 -185 -15 -29 -28 -59 -28
-67 0 -8 -9 -19 -20 -25 -11 -6 -20 -15 -20 -20 0 -6 -11 -23 -24 -38 -13 -15
-34 -40 -47 -55 -13 -15 -34 -29 -46 -30 -12 0 -19 -5 -17 -9 3 -4 0 -8 -6 -8
-6 0 -9 -4 -6 -9 7 -10 -62 -56 -71 -48 -3 3 -14 -3 -26 -14 -11 -10 -28 -19
-36 -19 -9 0 -23 -5 -31 -10 -13 -9 -13 -11 0 -21 13 -9 12 -10 -3 -5 -10 3
-25 -1 -33 -9 -18 -17 -38 -20 -28 -4 4 8 1 8 -13 1 -11 -6 -31 -12 -46 -14
-14 -2 -29 -7 -33 -11 -4 -4 -20 -7 -34 -7 -15 0 -47 -7 -71 -16 -46 -16 -214
-23 -279 -12 -162 28 -311 94 -394 173 -38 37 -106 180 -106 224 -1 34 -2 35
-15 17 -21 -28 -19 -6 7 61 41 112 110 199 241 306 93 76 280 162 413 191 38
8 125 15 194 15 104 1 141 -3 219 -24z m2367 -187 c4 -7 3 -8 -4 -4 -7 4 -12
2 -12 -5 0 -7 -3 -10 -6 -6 -6 5 3 27 11 27 2 0 7 -5 11 -12z m-3 -133 c4 -8
2 -17 -3 -20 -6 -4 -10 3 -10 14 0 25 6 27 13 6z m-73 -160 c0 -29 0 -29 -35
-13 -27 12 -32 24 -12 31 31 13 47 7 47 -18z m-60 -30 c0 -8 -5 -15 -12 -15
-6 0 -2 -8 8 -17 11 -10 21 -31 23 -48 1 -16 7 -31 12 -33 5 -2 9 -12 9 -22 0
-30 -34 -17 -41 16 -4 16 -7 21 -8 12 -1 -19 -21 -26 -21 -8 0 6 -4 10 -10 10
-5 0 -10 -7 -10 -15 0 -8 -4 -15 -10 -15 -5 0 -10 -5 -10 -11 0 -5 5 -7 10 -4
6 3 10 2 10 -3 0 -6 9 -8 20 -5 18 5 20 0 20 -36 0 -40 -1 -41 -35 -41 l-35 0
0 -114 c0 -122 -1 -124 -52 -121 l-28 2 0 -84 0 -83 -32 1 c-18 0 -27 3 -20 6
17 7 16 73 -2 73 -11 0 -16 -22 -21 -87 -4 -49 -13 -133 -20 -188 l-13 -100
-1 77 c-1 42 4 89 9 104 12 30 4 47 -11 24 -12 -19 -10 -312 2 -304 5 3 9 1 9
-5 0 -5 -5 -13 -11 -17 -7 -4 -9 -24 -6 -53 4 -30 3 -39 -3 -26 l-9 20 -1 -20
c-2 -11 -2 -26 -1 -33 1 -6 -3 -29 -9 -50 -7 -20 -16 -57 -21 -82 -12 -57 -13
-63 -22 -77 -4 -7 -5 -24 -1 -38 4 -15 2 -25 -5 -25 -6 0 -11 -7 -11 -15 0 -8
-4 -15 -9 -15 -5 0 -11 -10 -14 -22 -16 -68 -59 -169 -82 -192 -16 -16 -24
-33 -21 -44 3 -9 1 -24 -5 -32 -8 -12 -9 -9 -4 10 3 14 -9 -3 -28 -37 -19 -34
-42 -69 -51 -79 -10 -9 -15 -25 -13 -36 4 -15 2 -18 -11 -13 -9 3 -13 3 -9 -1
4 -4 -4 -22 -18 -40 -14 -18 -25 -35 -25 -37 0 -3 -18 -23 -40 -46 -23 -23
-38 -46 -35 -51 3 -6 -1 -7 -9 -4 -15 6 -20 -4 -17 -32 1 -7 -6 -14 -14 -18
-11 -4 -14 -2 -10 7 4 6 -7 -3 -24 -22 -17 -18 -31 -38 -31 -42 0 -5 -9 -9
-21 -9 -11 0 -18 -4 -14 -9 3 -5 -3 -12 -13 -15 -11 -4 -35 -23 -56 -43 -20
-20 -36 -33 -36 -30 0 4 -14 -5 -31 -20 -17 -16 -35 -27 -39 -26 -5 1 -14 -4
-20 -12 -7 -8 -16 -15 -21 -15 -4 0 -24 -10 -44 -21 -28 -17 -33 -24 -23 -31
10 -7 8 -8 -5 -4 -10 3 -55 -13 -106 -39 -50 -25 -95 -45 -101 -45 -6 0 -9 -4
-6 -9 4 -5 -4 -7 -16 -3 -16 4 -19 2 -13 -8 5 -9 4 -11 -3 -6 -6 4 -33 -2 -59
-13 -81 -32 -137 -53 -158 -57 -11 -2 -56 -12 -100 -23 -44 -10 -108 -24 -142
-31 -35 -7 -61 -15 -59 -19 2 -3 -33 -7 -78 -9 -44 -2 -97 -7 -116 -12 -20 -6
-273 -10 -597 -10 -309 0 -564 -4 -567 -8 -2 -4 -41 -8 -85 -7 -60 1 -81 -2
-81 -12 0 -10 -28 -13 -120 -13 -100 0 -120 3 -120 15 0 11 -11 15 -40 15 -33
0 -40 -3 -40 -20 0 -11 -6 -20 -12 -20 -10 0 -10 -2 0 -9 7 -4 -20 -7 -63 -6
-42 1 -78 -2 -81 -7 -7 -10 -84 -10 -84 0 0 5 17 8 38 7 44 -2 53 1 46 19 -4
10 -44 12 -201 8 -153 -4 -197 -2 -203 8 -6 10 -88 14 -367 17 -197 2 -621 6
-943 9 -322 3 -587 9 -590 12 -3 4 -21 8 -40 9 -19 2 -44 5 -55 7 -11 2 -35 5
-53 5 -18 1 -31 4 -29 9 3 4 -14 8 -37 9 -22 2 -42 7 -44 13 -2 5 -13 10 -25
10 -66 0 -328 77 -407 119 -19 10 -48 22 -65 25 -16 4 -38 15 -47 23 -10 9
-18 13 -18 9 0 -4 -13 2 -30 14 -16 12 -35 18 -41 14 -8 -4 -9 -3 -5 4 4 7 2
12 -4 12 -7 0 -26 10 -43 22 -18 13 -39 21 -47 19 -8 -1 -12 0 -8 4 11 11 -40
48 -53 39 -8 -4 -9 -3 -5 4 7 11 -32 38 -47 34 -5 -1 -6 2 -2 8 6 9 -7 14 -28
11 -4 0 -6 3 -5 8 3 9 -34 47 -100 101 -23 19 -42 40 -42 47 0 7 -7 10 -17 6
-9 -4 -14 -2 -11 3 8 12 -12 38 -35 47 -10 4 -15 11 -12 17 3 6 0 16 -7 24
-35 36 -65 75 -82 108 -10 21 -27 46 -37 57 -11 11 -19 25 -19 31 0 5 -4 10
-10 10 -5 0 -6 7 -3 17 4 11 3 14 -5 9 -8 -5 -10 -2 -6 8 3 9 1 16 -5 16 -6 0
-10 6 -9 12 2 7 -2 12 -7 11 -6 -1 -12 7 -12 18 -1 11 -14 34 -28 51 -16 18
-24 39 -22 50 3 10 1 18 -5 18 -6 0 -8 6 -5 14 3 8 2 16 -3 18 -6 2 -14 23
-19 48 -11 50 -30 127 -38 150 -4 12 -7 11 -13 -5 -6 -15 -7 -9 -7 19 1 21 3
33 5 26 3 -9 6 -9 13 1 6 10 8 9 8 -6 0 -48 31 -133 89 -237 20 -37 54 -100
76 -140 167 -317 397 -545 711 -705 254 -129 576 -212 915 -233 97 -6 865 -9
2050 -6 1713 3 1906 5 2014 20 376 54 656 146 921 304 193 115 383 305 513
515 66 105 150 277 183 374 72 214 89 360 89 791 l0 303 25 33 c14 18 25 42
25 54 0 11 5 24 10 27 6 4 8 11 5 16 -4 5 -1 17 4 26 9 16 10 16 11 -4 0 -13
5 -23 10 -23 6 0 10 16 10 35 0 26 4 35 18 36 9 1 1 5 -18 9 -35 7 -35 7 -5 9
22 1 26 4 16 10 -8 5 -21 6 -30 3 -26 -9 5 25 38 42 14 7 51 27 81 45 30 17
62 31 71 31 9 0 19 7 23 15 3 8 12 15 21 15 8 0 15 -7 15 -15z m35 -25 c-3 -5
-11 -10 -16 -10 -6 0 -7 5 -4 10 3 6 11 10 16 10 6 0 7 -4 4 -10z m-3358 -62
c-3 -8 -6 -5 -6 6 -1 11 2 17 5 13 3 -3 4 -12 1 -19z m-4957 -108 c0 -29 -4
-40 -15 -40 -11 0 -15 11 -15 40 0 29 4 40 15 40 11 0 15 -11 15 -40z m60
-266 c0 -8 -5 -12 -10 -9 -6 4 -8 11 -5 16 9 14 15 11 15 -7z m207 -6 c-3 -8
-6 -5 -6 6 -1 11 2 17 5 13 3 -3 4 -12 1 -19z m-130 -205 c-3 -10 -5 -4 -5 12
0 17 2 24 5 18 2 -7 2 -21 0 -30z m-40 -40 c-2 -16 -4 -5 -4 22 0 28 2 40 4
28 2 -13 2 -35 0 -50z m38 -101 c-5 -22 -10 -31 -13 -22 -3 8 -10 19 -16 23
-7 6 -4 7 7 3 14 -4 17 1 18 32 1 20 3 29 6 19 3 -11 2 -35 -2 -55z m38 -127
c31 -95 44 -125 50 -119 3 3 3 -5 -1 -18 -5 -21 -7 -19 -18 17 -7 22 -13 36
-14 30 0 -5 -7 5 -15 23 -8 18 -12 39 -9 47 4 8 2 15 -4 15 -6 0 -13 -6 -15
-12 -5 -12 -6 -6 -13 71 -2 29 -1 31 10 15 7 -11 20 -41 29 -69z m2242 35 c10
-11 16 -20 13 -20 -3 0 -13 9 -23 20 -10 11 -16 20 -13 20 3 0 13 -9 23 -20z
m-2255 -106 c0 -8 -4 -12 -10 -9 -5 3 -10 10 -10 16 0 5 5 9 10 9 6 0 10 -7
10 -16z m148 -179 c18 -25 30 -51 26 -56 -3 -6 1 -9 9 -7 9 2 15 -1 14 -7 -1
-5 -18 -10 -38 -10 l-36 -1 2 53 c2 50 -7 68 -19 41 -4 -9 -5 -8 -5 2 2 24
-12 60 -23 60 -5 0 -6 5 -2 11 4 7 13 1 23 -14 9 -14 31 -46 49 -72z m-71 13
c-3 -7 -5 -2 -5 12 0 14 2 19 5 13 2 -7 2 -19 0 -25z m2478 7 c28 -8 95 -28
150 -45 215 -66 512 -118 732 -127 l133 -6 31 -61 c55 -106 102 -190 121 -215
10 -13 18 -29 18 -35 -1 -6 -8 1 -16 17 -8 15 -21 27 -29 27 -8 0 -14 3 -14 8
4 21 -3 24 -16 6 -11 -15 -14 -16 -15 -4 0 13 -12 14 -72 9 -113 -9 -204 -1
-217 19 -4 7 -29 15 -57 18 -27 4 -60 15 -73 26 -13 10 -32 18 -42 18 -10 0
-22 6 -26 13 -16 25 -95 68 -128 69 -19 1 -35 6 -35 12 0 6 -20 22 -45 36 -30
17 -41 28 -35 35 6 7 7 14 4 18 -3 3 14 4 38 1 l43 -4 -38 10 c-22 6 -45 6
-55 1 -9 -4 -35 -11 -57 -15 -30 -4 -35 -3 -17 4 24 10 31 26 7 16 -8 -3 -25
-1 -37 5 -18 7 -8 8 37 5 38 -2 51 -1 35 4 -14 4 -59 18 -100 31 -108 33 -303
108 -315 121 -11 11 -4 10 90 -17z m355 -175 c-8 -5 -22 -9 -30 -9 -10 0 -8 3
5 9 27 12 43 12 25 0z m-1592 -66 c63 -16 171 -67 205 -96 12 -11 44 -36 70
-56 46 -35 157 -170 157 -191 0 -5 5 -11 12 -13 26 -9 4 -151 -30 -190 -11
-14 -13 -31 -8 -80 4 -35 4 -60 1 -56 -4 4 -22 1 -40 -7 -19 -7 -36 -11 -39
-7 -3 3 -6 -1 -6 -9 0 -11 -2 -11 -8 -1 -6 9 -12 6 -22 -13 -7 -14 -22 -25
-34 -25 -12 0 -30 -1 -41 -1 -35 -1 -109 38 -150 79 -90 89 -159 177 -150 191
4 7 -3 10 -17 8 -21 -2 -23 2 -25 51 -1 29 -9 75 -18 102 -17 51 -87 140 -111
140 -8 0 -14 5 -14 11 0 6 -7 8 -16 5 -8 -3 -13 -2 -10 3 5 7 -30 25 -99 51
-11 4 -28 6 -37 4 -10 -1 -18 2 -18 7 0 6 -5 7 -12 3 -8 -5 -9 -2 -5 9 8 20
-3 22 -23 5 -8 -7 -6 -2 5 11 67 79 302 111 483 65z m-1088 -39 c0 -5 -5 -3
-10 5 -5 8 -10 20 -10 25 0 6 5 3 10 -5 5 -8 10 -19 10 -25z m1367 -12 c1 -22
-1 -24 -8 -10 -6 9 -7 22 -4 27 9 14 10 13 12 -17z m929 -5 c-8 -6 -8 -8 0 -8
6 0 11 -10 10 -21 -1 -14 6 -23 17 -25 26 -4 31 -10 22 -31 -5 -12 -9 -14 -12
-5 -8 22 -19 13 -21 -20 -4 -50 -11 -66 -33 -73 -11 -4 -16 -11 -13 -17 5 -8
1 -9 -10 -5 -10 4 -24 1 -32 -8 -9 -8 -30 -15 -47 -15 -18 -1 -50 -7 -72 -15
-55 -20 -137 -19 -179 3 -50 24 -44 37 17 38 28 1 80 12 114 24 35 12 67 19
72 16 5 -3 7 3 4 14 -3 11 -7 20 -9 20 -2 0 -29 -7 -61 -15 -107 -28 -193 -13
-193 34 0 27 99 91 162 106 55 13 284 15 264 3z m3129 -129 c132 -18 449 -104
440 -119 -3 -6 1 -7 9 -4 9 3 16 1 16 -5 0 -6 8 -11 19 -11 10 0 30 -9 43 -20
14 -10 28 -16 32 -13 3 3 6 1 6 -5 0 -7 8 -12 18 -12 15 0 15 -2 2 -11 -13 -9
-12 -10 2 -5 17 5 78 -22 78 -36 0 -3 -16 -12 -35 -18 -19 -6 -56 -22 -82 -36
-26 -13 -51 -24 -54 -24 -3 0 -31 -14 -63 -31 -43 -23 -54 -34 -44 -41 8 -6 4
-7 -12 -3 -18 4 -34 0 -52 -14 -14 -12 -30 -21 -35 -21 -5 0 -52 -18 -103 -40
-51 -22 -100 -40 -107 -40 -7 0 -13 -4 -13 -9 0 -11 -54 -19 -263 -35 -134
-11 -183 -18 -196 -30 -19 -17 -86 -22 -96 -7 -3 6 -41 10 -85 10 -89 0 -152
9 -161 23 -3 5 -57 9 -120 9 -130 0 -150 4 -142 25 3 8 -1 14 -10 14 -18 0
-19 8 -20 112 0 70 2 79 24 97 13 11 19 20 12 21 -19 0 -152 -138 -192 -200
-19 -30 -37 -57 -39 -60 -2 -2 -7 1 -11 9 -7 10 -9 9 -14 -3 -3 -8 -1 -18 5
-22 7 -5 8 -2 3 6 -5 9 -4 11 4 6 7 -5 9 -12 3 -19 -4 -7 -21 -43 -37 -80 -22
-54 -30 -65 -37 -53 -10 18 -1 39 13 31 5 -4 9 1 9 10 0 9 -4 13 -10 10 -15
-9 -13 -3 23 77 38 83 134 214 201 276 56 52 156 117 254 166 235 118 535 164
817 125z m-3818 -71 c-3 -8 -6 -5 -6 6 -1 11 2 17 5 13 3 -3 4 -12 1 -19z
m1783 -115 c92 -31 247 -104 278 -132 13 -11 21 -25 17 -31 -3 -5 1 -13 10
-16 9 -4 14 -13 11 -20 -3 -8 -2 -14 2 -14 12 0 42 -67 42 -91 0 -62 -169
-224 -240 -230 -19 -2 -46 -11 -59 -21 -15 -12 -41 -18 -72 -18 -51 0 -65 -14
-27 -26 19 -6 17 -8 -19 -20 -153 -52 -613 -96 -613 -59 0 6 -4 5 -8 -2 -5 -9
-23 -8 -72 2 -35 7 -69 11 -74 8 -5 -4 -6 1 -2 12 7 18 6 18 -14 0 -11 -10
-20 -14 -20 -9 0 5 -22 18 -50 29 -27 11 -52 25 -54 32 -3 7 -12 10 -22 6 -13
-5 -16 -3 -11 10 3 9 2 16 -4 14 -6 -1 -17 8 -26 20 -13 20 -12 24 18 55 18
18 30 26 27 18 -17 -48 -16 -57 2 -88 20 -33 36 -37 115 -32 38 2 85 30 86 50
5 67 -24 97 -105 107 -34 4 -53 9 -43 11 11 2 16 9 13 18 -3 8 -2 14 2 14 4 0
29 43 57 95 l50 94 70 -2 c61 -2 73 -6 96 -29 15 -15 45 -32 68 -39 36 -11 53
-9 129 9 112 28 166 64 170 114 3 34 4 35 44 34 67 -1 105 59 79 127 -6 14 -7
28 -3 32 10 9 65 -2 152 -32z m-2784 -56 c63 -36 141 -134 196 -249 42 -86 8
-128 -104 -128 -40 0 -80 6 -97 14 -35 19 -152 149 -180 201 -35 66 -24 121
31 155 38 23 120 27 154 7z m5341 -233 c-3 -3 -12 -4 -19 -1 -8 3 -5 6 6 6 11
1 17 -2 13 -5z m-5472 -24 c10 -11 16 -20 13 -20 -3 0 -13 9 -23 20 -10 11
-16 20 -13 20 3 0 13 -9 23 -20z m5435 12 c0 -9 -59 -32 -83 -32 -9 0 -17 -4
-17 -9 0 -5 -17 -15 -37 -21 -21 -7 -47 -18 -58 -25 -18 -11 -75 -26 -75 -20
0 3 37 21 132 64 26 11 53 21 60 21 7 1 24 7 38 15 29 16 40 18 40 7z m-3350
-177 c20 -25 -3 -39 -57 -36 -18 1 -23 7 -23 26 0 22 4 25 34 25 18 0 39 -7
46 -15z m1547 -82 c-3 -10 -5 -4 -5 12 0 17 2 24 5 18 2 -7 2 -21 0 -30z
m-3462 -13 c3 -5 1 -10 -4 -10 -6 0 -11 5 -11 10 0 6 2 10 4 10 3 0 8 -4 11
-10z m2975 -160 c-8 -5 -19 -10 -25 -10 -5 0 -3 5 5 10 8 5 20 10 25 10 6 0 3
-5 -5 -10z m-776 -228 c6 -10 -60 -9 -70 1 -4 4 9 7 29 7 20 0 38 -4 41 -8z
m221 -9 c-16 -2 -37 -7 -45 -10 -21 -9 -90 -10 -84 -2 2 4 17 5 34 4 17 -1 33
1 36 6 3 5 24 8 47 8 33 -2 35 -3 12 -6z m388 0 c-24 -2 -62 -2 -85 0 -24 2
-5 4 42 4 47 0 66 -2 43 -4z m5 -40 c-21 -2 -57 -2 -80 0 -24 2 -7 4 37 4 44
0 63 -2 43 -4z m335 0 c-13 -2 -33 -2 -45 0 -13 2 -3 4 22 4 25 0 35 -2 23 -4z"/>
<path d="M5068 9283 c34 -2 90 -2 125 0 34 2 6 3 -63 3 -69 0 -97 -1 -62 -3z"/>
<path d="M4858 9273 c12 -2 30 -2 40 0 9 3 -1 5 -23 4 -22 0 -30 -2 -17 -4z"/>
<path d="M4733 9263 c9 -2 23 -2 30 0 6 3 -1 5 -18 5 -16 0 -22 -2 -12 -5z"/>
<path d="M4648 9253 c7 -3 16 -2 19 1 4 3 -2 6 -13 5 -11 0 -14 -3 -6 -6z"/>
<path d="M4008 9093 c7 -3 16 -2 19 1 4 3 -2 6 -13 5 -11 0 -14 -3 -6 -6z"/>
<path d="M6785 9000 c-3 -5 -1 -10 4 -10 6 0 11 5 11 10 0 6 -2 10 -4 10 -3 0
-8 -4 -11 -10z"/>
<path d="M6724 8966 c21 -14 45 -22 53 -19 8 3 13 0 11 -7 -2 -7 3 -15 10 -17
11 -4 12 -1 3 15 -6 10 -7 23 -3 27 4 4 -3 3 -14 -3 -18 -9 -26 -8 -44 8 -13
11 -30 20 -39 20 -9 0 1 -11 23 -24z"/>
<path d="M6487 8918 c7 -8 10 -18 6 -22 -4 -4 0 -4 10 0 22 8 22 11 -5 25 -20
11 -21 10 -11 -3z"/>
<path d="M6935 8864 c-19 -19 -8 -36 27 -41 20 -2 20 -1 6 7 -9 6 -15 19 -13
30 5 24 1 25 -20 4z m12 -19 c0 -8 -4 -12 -9 -9 -5 3 -6 10 -3 15 9 13 12 11
12 -6z"/>
<path d="M6980 8849 c0 -5 5 -7 10 -4 6 3 10 8 10 11 0 2 -4 4 -10 4 -5 0 -10
-5 -10 -11z"/>
<path d="M3083 8803 c9 -2 23 -2 30 0 6 3 -1 5 -18 5 -16 0 -22 -2 -12 -5z"/>
<path d="M3138 8803 c6 -2 18 -2 25 0 6 3 1 5 -13 5 -14 0 -19 -2 -12 -5z"/>
<path d="M6990 8795 c0 -2 14 -13 30 -25 17 -12 30 -18 30 -13 0 4 -14 16 -30
25 -17 9 -30 15 -30 13z"/>
<path d="M2744 8779 c-2 -4 3 -12 10 -19 12 -9 17 -7 25 7 8 15 6 19 -11 19
-10 0 -21 -3 -24 -7z"/>
<path d="M7055 8780 c3 -5 8 -10 11 -10 2 0 4 5 4 10 0 6 -5 10 -11 10 -5 0
-7 -4 -4 -10z"/>
<path d="M2910 8750 c-9 -6 -10 -10 -3 -10 6 0 15 5 18 10 8 12 4 12 -15 0z"/>
<path d="M7060 8747 c0 -2 18 -18 39 -35 36 -29 40 -30 53 -14 11 15 11 15 -2
5 -13 -10 -22 -7 -47 18 -29 26 -43 35 -43 26z"/>
<path d="M2840 8706 c-53 -39 -73 -61 -77 -87 -4 -28 3 -23 21 16 10 21 22 33
28 29 6 -4 8 -3 5 3 -4 6 11 22 33 37 22 14 40 28 40 31 0 8 -2 6 -50 -29z"/>
<path d="M7166 8684 c-11 -7 -16 -17 -13 -21 4 -3 7 -3 7 0 0 4 13 -7 28 -24
22 -24 31 -29 37 -19 5 7 4 11 -1 8 -14 -9 -31 15 -29 40 2 29 -6 34 -29 16z"/>
<path d="M2706 8578 c-36 -42 -47 -65 -23 -52 7 4 9 3 4 -2 -5 -5 -14 -9 -20
-9 -16 0 -92 -135 -124 -222 -15 -39 -31 -69 -35 -67 -5 3 -6 10 -3 15 4 5 3
14 -1 20 -15 24 -22 -15 -8 -43 8 -15 10 -28 5 -28 -5 0 -12 6 -14 13 -3 6 -4
-3 -4 -20 1 -18 7 -33 12 -33 6 0 3 -5 -5 -11 -12 -8 -12 -12 -2 -16 10 -4 10
-8 0 -21 -7 -8 -12 -17 -11 -18 1 -2 0 -11 -3 -19 -6 -14 -8 -13 -21 2 -13 16
-13 16 -3 -6 l12 -23 31 38 c146 185 316 272 454 235 37 -10 43 -16 49 -47 8
-45 -4 -58 -40 -44 -36 13 -131 12 -181 -4 l-40 -12 35 -8 c86 -20 130 -70
130 -148 0 -116 -139 -191 -242 -131 -68 39 -90 146 -42 202 14 17 21 31 15
31 -20 0 -111 -124 -150 -205 -112 -228 -89 -478 57 -616 l46 -44 -37 43 c-21
24 -45 58 -54 77 -20 43 -7 63 45 67 32 3 41 -2 78 -42 42 -45 154 -117 154
-99 0 5 5 9 12 9 6 0 3 -9 -7 -20 -10 -11 -15 -20 -11 -20 3 0 0 -10 -9 -23
-8 -13 -12 -26 -9 -30 3 -3 3 -11 -2 -18 -4 -7 -6 -43 -5 -81 2 -56 0 -68 -13
-68 -31 0 -117 39 -168 75 -46 33 -50 34 -28 10 14 -15 44 -40 68 -56 39 -24
41 -28 25 -38 -15 -9 -13 -10 10 -5 15 4 27 2 26 -2 -1 -5 0 -25 4 -44 11 -65
17 -225 8 -238 -13 -22 -141 105 -141 140 0 15 -6 28 -15 30 -13 3 -13 6 0 33
l15 30 -30 -32 c-46 -51 -64 -127 -57 -253 4 -79 12 -123 32 -180 60 -167 185
-313 345 -402 l84 -47 32 82 c40 104 96 206 130 238 l27 24 -15 -25 c-112
-184 -164 -339 -218 -650 -39 -226 -71 -344 -119 -439 -49 -95 -57 -138 -33
-169 16 -20 23 -22 62 -16 41 7 43 9 20 16 -18 6 -14 7 15 3 28 -3 35 -2 25 5
-8 5 -13 10 -10 10 3 1 20 3 39 5 18 1 41 11 50 20 15 16 14 17 -9 6 -24 -11
-24 -11 -6 3 11 9 26 16 35 16 8 0 12 3 8 6 -3 3 12 33 34 67 52 81 74 156
110 377 16 102 37 216 45 253 15 62 19 68 38 62 11 -3 66 -16 121 -29 l100
-23 26 106 c14 58 40 134 58 169 34 68 51 84 25 25 -74 -174 -88 -249 -88
-443 1 -184 21 -275 83 -380 94 -158 264 -244 413 -210 159 37 281 182 265
316 -6 56 -32 85 -81 90 l-35 4 13 -31 c12 -28 11 -33 -13 -58 -14 -15 -34
-37 -44 -50 -12 -15 -24 -20 -37 -16 -12 4 -26 0 -36 -9 -18 -18 -40 -21 -49
-6 -3 6 -17 10 -30 10 -34 0 -75 21 -75 38 0 8 -17 30 -37 48 -31 27 -34 32
-15 27 22 -5 22 -4 -7 43 -42 68 -61 151 -60 259 1 49 4 78 6 64 5 -33 12 -35
283 -50 295 -17 803 -6 1120 24 l35 4 0 -116 c-1 -151 -36 -269 -113 -385 -16
-23 -33 -53 -39 -67 -6 -14 -46 -54 -90 -89 -80 -65 -87 -74 -69 -100 10 -13
9 -13 -6 -1 -10 7 -15 17 -12 22 9 15 -6 10 -34 -10 -41 -29 -250 -149 -271
-156 -11 -3 -25 -13 -33 -22 -11 -14 -11 -15 7 -6 41 22 100 46 108 44 5 -1 6
3 3 8 -3 5 4 9 17 9 45 1 81 11 106 30 15 11 41 23 58 26 17 4 34 14 37 22 6
16 -10 19 -19 4 -4 -6 -15 -8 -25 -5 -10 3 -25 -1 -34 -10 -9 -9 -16 -12 -16
-6 0 15 38 33 52 25 6 -4 17 0 23 10 11 14 14 14 24 2 9 -11 19 -13 38 -5 13
5 29 6 34 3 6 -3 16 0 24 6 8 7 15 9 15 6 0 -4 9 -2 21 5 12 6 37 13 57 15 39
5 81 18 122 38 14 7 67 19 118 27 88 12 107 21 80 33 -21 9 81 -5 150 -20 74
-16 126 -18 117 -4 -4 6 6 10 22 11 l28 1 -25 8 c-16 5 -19 8 -8 9 9 1 23 9
30 20 7 10 30 24 52 32 21 8 48 23 60 35 11 11 45 29 74 39 28 11 52 23 52 27
0 4 9 8 19 8 10 0 21 7 25 15 3 8 10 15 16 15 6 0 21 11 34 25 13 14 31 25 40
25 9 0 34 11 54 25 20 14 45 25 55 25 10 0 33 11 50 24 18 14 56 36 85 49 29
14 65 36 80 49 15 13 43 30 62 38 39 16 44 20 83 73 l28 37 -23 1 c-25 1 17
12 83 22 l36 5 7 -54 c8 -71 -9 -220 -35 -311 -20 -66 -20 -73 -5 -94 9 -13
16 -28 16 -34 -1 -5 -8 3 -16 19 l-16 29 -45 -84 c-24 -46 -58 -102 -74 -124
-25 -33 -22 -31 15 10 25 27 46 55 46 63 0 7 5 10 10 7 6 -3 10 -1 10 5 0 6 5
16 10 23 6 7 17 21 25 32 12 16 14 16 9 3 -3 -10 -1 -18 5 -18 6 0 11 4 11 9
0 4 21 16 48 26 26 10 53 27 61 37 7 11 19 17 27 14 7 -3 16 -1 20 5 3 6 12 8
18 6 17 -7 43 10 33 20 -5 4 -12 1 -17 -7 -13 -21 -12 -3 1 21 8 15 14 18 24
9 9 -8 14 -6 19 6 3 9 3 21 -1 27 -4 6 0 8 10 4 12 -4 17 -1 17 10 0 10 6 35
14 58 21 63 36 132 36 171 0 54 20 113 42 119 24 8 42 42 25 48 -6 2 1 8 16
12 18 5 26 12 23 21 -6 16 22 34 56 35 13 0 17 3 11 6 -7 2 7 19 35 40 132 99
232 235 277 378 23 72 31 250 14 324 -13 59 -23 74 -32 49 -2 -8 -11 0 -20 17
-11 20 -16 24 -17 13 0 -24 -19 -18 -48 14 -18 21 -25 43 -28 95 -6 74 -28
138 -44 128 -5 -3 -19 3 -30 13 -22 20 -69 32 -132 32 -33 0 -57 -10 -137 -55
-10 -6 -51 -46 -91 -90 -41 -44 -82 -84 -92 -89 -10 -5 -18 -15 -18 -22 0 -7
-13 -21 -30 -31 -16 -9 -30 -21 -30 -25 0 -5 -16 -16 -35 -25 -19 -9 -35 -20
-35 -24 0 -8 -110 -80 -175 -114 -22 -12 -53 -29 -70 -38 -61 -33 -197 -87
-220 -87 -7 0 -26 -5 -42 -12 -15 -6 -35 -12 -43 -14 -8 -2 -60 -13 -115 -25
-224 -47 -435 -63 -763 -55 -144 4 -275 11 -290 17 -24 9 -67 19 -156 35 -42
7 -47 12 -40 40 4 14 2 24 -5 24 -6 0 -11 5 -11 12 0 9 3 9 12 0 19 -19 30
-14 27 11 -4 29 8 48 26 40 10 -3 15 1 15 13 0 9 8 26 17 36 16 18 15 21 -22
58 -38 39 -65 51 -65 29 0 -6 6 -9 13 -6 9 3 13 -4 13 -23 0 -16 -4 -27 -8
-24 -5 3 -15 2 -21 -3 -7 -4 -5 0 6 9 17 17 17 18 -3 38 -12 12 -28 19 -36 16
-8 -3 -14 -1 -14 4 0 6 -11 10 -24 10 -14 0 -27 4 -30 9 -4 5 -81 11 -174 12
-222 4 -235 4 -392 0 -130 -3 -348 20 -458 49 -151 39 -188 51 -197 63 -6 8
-25 18 -43 21 -17 4 -34 12 -38 17 -3 5 -31 23 -62 39 -31 16 -74 45 -95 64
-21 20 -45 36 -53 36 -8 0 -14 7 -14 16 0 9 -9 27 -20 41 -11 14 -20 32 -20
39 0 7 -6 19 -13 26 -23 23 -47 97 -47 144 0 27 -5 47 -13 50 -8 3 -11 18 -9
45 3 22 -1 46 -7 52 -15 15 -14 28 2 24 6 -1 10 5 9 13 -2 8 -6 31 -8 50 -3
32 -3 33 9 13 10 -19 12 -11 12 57 0 61 -3 76 -12 68 -7 -6 -13 -7 -13 -3 0
38 163 522 206 610 35 73 41 95 24 95 -5 0 -10 8 -10 18 0 31 -101 84 -210
111 -46 12 -95 29 -109 38 -15 10 -30 16 -34 15 -5 -1 -6 2 -2 8 5 8 11 8 20
0 9 -8 15 -8 20 0 4 6 1 9 -6 8 -6 -2 -14 3 -17 11 -3 8 0 11 7 7 6 -4 11 -1
11 8 0 23 -5 20 -44 -26z m141 -940 c-3 -8 -6 -5 -6 6 -1 11 2 17 5 13 3 -3 4
-12 1 -19z m-10 -58 c-7 -17 -13 -26 -15 -21 -3 10 15 51 22 51 3 0 -1 -14 -7
-30z m-17 -77 c0 -5 -5 -15 -10 -23 -8 -12 -10 -11 -10 8 0 12 5 22 10 22 6 0
10 -3 10 -7z m-33 -115 c-3 -8 -6 -5 -6 6 -1 11 2 17 5 13 3 -3 4 -12 1 -19z
m1805 -703 c0 -5 -5 -10 -11 -12 -8 -1 -7 0 0 4 8 4 7 8 -2 15 -11 8 -11 9 -1
6 8 -2 14 -8 14 -13z m-1426 -330 c4 -8 10 -12 15 -9 5 3 -10 -27 -34 -68 -23
-40 -49 -88 -56 -106 -8 -18 -16 -30 -19 -27 -10 10 -12 45 -2 45 5 0 7 18 4
40 -3 22 -1 40 5 40 5 0 14 14 20 32 12 34 38 68 53 68 5 0 11 -7 14 -15z
m557 -38 c-3 -7 -24 -38 -45 -69 -82 -122 -103 -210 -102 -415 0 -79 -1 -143
-3 -143 -2 0 -11 17 -20 38 -20 45 -28 251 -12 302 6 19 13 51 16 70 3 19 9
40 13 45 4 6 10 26 14 46 9 49 60 117 99 134 34 14 52 11 40 -8z m1710 -364
c-7 -2 -19 -2 -25 0 -7 3 -2 5 12 5 14 0 19 -2 13 -5z m-236 -29 c-3 -3 -12
-4 -19 -1 -8 3 -5 6 6 6 11 1 17 -2 13 -5z m-1481 -378 c8 -8 11 -17 6 -20 -4
-2 -13 4 -20 15 -14 22 -7 25 14 5z m954 -456 c0 -5 -8 -10 -17 -10 -15 0 -16
2 -3 10 19 12 20 12 20 0z m-34 -22 c4 -7 3 -8 -4 -4 -6 4 -22 2 -34 -4 -22
-11 -22 -10 -4 4 24 19 32 20 42 4z"/>
<path d="M5685 8589 c-86 -19 -231 -86 -307 -141 -124 -89 -264 -252 -322
-373 -36 -75 -96 -257 -95 -290 0 -11 -3 -56 -7 -100 -7 -85 11 -293 27 -310
5 -5 9 -20 9 -33 0 -13 25 -72 56 -131 67 -127 78 -143 89 -133 4 4 5 -4 2
-16 -3 -13 -3 -22 0 -19 3 3 23 -16 44 -43 36 -46 116 -110 137 -110 5 0 15
-7 22 -15 7 -8 22 -15 34 -15 17 0 18 -2 6 -10 -12 -8 -11 -10 8 -10 34 0 26
-18 -10 -23 -21 -3 -15 -4 17 -4 28 0 81 -7 120 -16 38 -9 79 -14 91 -11 12 3
25 1 28 -5 9 -14 233 -15 238 -1 2 6 26 12 53 14 54 4 145 26 145 36 0 3 10 6
21 7 12 1 29 8 38 16 9 8 35 24 59 36 23 12 42 26 42 32 0 6 4 8 9 5 11 -7 83
49 74 58 -3 3 1 6 9 6 9 0 36 24 60 53 23 28 46 54 51 55 4 2 7 8 7 12 0 5 12
21 26 37 27 29 94 160 94 184 0 8 11 46 26 84 41 113 62 239 58 355 -4 131 -9
163 -45 284 -33 106 -45 133 -98 211 -30 43 -49 66 -106 125 -44 45 -117 102
-154 121 -26 12 -58 31 -73 41 -38 26 -216 58 -318 57 -47 -1 -121 -10 -165
-20z m276 -214 c74 -19 141 -50 131 -60 -4 -5 -2 -5 5 -2 6 4 19 4 29 0 16 -6
16 -7 1 -12 -11 -4 -1 -14 36 -35 50 -27 51 -27 32 -5 -11 13 5 3 35 -22 164
-137 260 -318 291 -546 79 -595 -489 -1037 -1046 -814 -214 86 -365 253 -436
481 -31 98 -34 309 -6 409 42 155 99 258 201 368 138 148 296 231 491 257 49
7 176 -4 236 -19z"/>
<path d="M5978 8353 c7 -3 16 -2 19 1 4 3 -2 6 -13 5 -11 0 -14 -3 -6 -6z"/>
<path d="M6020 8340 c0 -5 5 -10 11 -10 5 0 7 5 4 10 -3 6 -8 10 -11 10 -2 0
-4 -4 -4 -10z"/>
<path d="M5690 8239 c-209 -18 -381 -141 -480 -342 -55 -113 -71 -182 -71
-307 0 -122 16 -194 66 -289 42 -80 81 -128 138 -172 39 -30 37 -28 -16 29
l-58 61 18 33 c9 18 16 37 14 42 -1 5 4 4 12 -2 10 -9 17 -6 31 10 l18 21 42
-45 c72 -77 177 -138 237 -138 15 0 40 -5 55 -10 38 -15 161 11 240 50 60 29
184 145 184 172 0 7 7 3 15 -8 11 -14 14 -15 15 -4 0 29 103 59 125 36 21 -20
19 -36 -11 -92 -57 -108 -170 -201 -309 -257 -22 -9 -34 -16 -28 -16 27 -2
112 38 181 82 111 72 200 200 237 342 19 73 19 220 1 297 -15 67 -68 208 -77
208 -4 0 -10 -11 -13 -25 -9 -37 -65 -96 -111 -116 -47 -22 -120 -24 -179 -7
-81 25 -146 118 -146 209 1 78 67 161 147 184 l38 11 -60 18 c-80 24 -164 32
-255 25z"/>
<path d="M5768 6983 c7 -3 16 -2 19 1 4 3 -2 6 -13 5 -11 0 -14 -3 -6 -6z"/>
<path d="M7300 8537 c58 -60 90 -89 61 -54 -6 8 -7 18 -3 22 4 5 2 5 -4 2 -10
-6 -52 30 -46 39 1 2 -1 4 -4 3 -3 -1 -20 12 -37 27 -18 16 -3 -2 33 -39z"/>
<path d="M2556 8455 c-3 -9 -6 -22 -5 -28 0 -7 5 -1 10 12 5 13 8 26 5 28 -2
2 -6 -3 -10 -12z"/>
<path d="M7430 8408 c0 -2 15 -17 32 -34 18 -16 25 -20 15 -8 -9 11 -14 25
-10 30 5 5 4 6 -1 2 -5 -4 -15 -3 -23 3 -7 6 -13 9 -13 7z"/>
<path d="M7480 8397 c0 -2 6 -10 14 -16 11 -9 16 -9 22 1 4 7 4 10 -1 6 -4 -4
-14 -3 -22 3 -7 6 -13 9 -13 6z"/>
<path d="M7573 8305 c0 -8 4 -12 9 -9 5 3 6 10 3 15 -9 13 -12 11 -12 -6z"/>
<path d="M7530 8296 c0 -2 8 -10 18 -17 15 -13 16 -12 3 4 -13 16 -21 21 -21
13z"/>
<path d="M7580 8250 c6 -11 13 -20 16 -20 2 0 0 9 -6 20 -6 11 -13 20 -16 20
-2 0 0 -9 6 -20z"/>
<path d="M7658 8222 c4 -11 1 -13 -9 -7 -8 5 -11 4 -6 0 14 -16 33 -13 33 5 0
9 -6 17 -12 17 -7 0 -10 -7 -6 -15z"/>
<path d="M7637 8173 c15 -23 30 -40 32 -37 2 2 -2 10 -9 19 -12 14 -7 19 13
16 5 -1 5 4 2 10 -5 7 -11 7 -18 0 -7 -7 -16 -3 -29 12 -11 12 -7 3 9 -20z"/>
<path d="M7690 8111 c0 -5 5 -13 10 -16 6 -3 10 -2 10 4 0 5 -4 13 -10 16 -5
3 -10 2 -10 -4z"/>
<path d="M2406 8071 c-4 -6 -2 -19 4 -30 13 -26 13 -34 -2 -25 -7 4 -8 3 -4
-5 4 -6 11 -9 16 -6 4 3 10 2 13 -2 2 -5 2 -1 -1 7 -3 8 -5 25 -6 37 -1 26
-12 38 -20 24z"/>
<path d="M7721 8054 c6 -7 16 -11 21 -8 11 7 3 17 -18 20 -12 2 -13 -1 -3 -12z"/>
<path d="M2412 7970 c0 -14 2 -19 5 -12 2 6 2 18 0 25 -3 6 -5 1 -5 -13z"/>
<path d="M2391 7913 c-10 -26 -10 -27 4 -9 8 11 15 23 15 28 0 15 -7 8 -19
-19z"/>
<path d="M7816 7932 c-2 -4 5 -19 15 -32 l20 -25 -12 25 c-7 14 -12 28 -11 33
3 9 -5 9 -12 -1z"/>
<path d="M2886 7763 c-6 -14 -5 -15 5 -6 7 7 10 15 7 18 -3 3 -9 -2 -12 -12z"/>
<path d="M3135 7405 c-89 -47 -68 -135 33 -135 57 0 82 20 82 67 0 62 -60 97
-115 68z"/>
<path d="M3818 7373 c-56 -35 -57 -103 -3 -139 38 -25 157 -16 187 13 19 19
20 27 12 60 -18 72 -127 109 -196 66z"/>
<path d="M2546 7023 c-6 -14 -5 -15 5 -6 7 7 10 15 7 18 -3 3 -9 -2 -12 -12z"/>
<path d="M4648 6553 c7 -3 16 -2 19 1 4 3 -2 6 -13 5 -11 0 -14 -3 -6 -6z"/>
<path d="M9062 6310 c0 -19 2 -27 5 -17 2 9 2 25 0 35 -3 9 -5 1 -5 -18z"/>
<path d="M9221 6034 c0 -11 3 -14 6 -6 3 7 2 16 -1 19 -3 4 -6 -2 -5 -13z"/>
<path d="M6978 5963 c7 -3 16 -2 19 1 4 3 -2 6 -13 5 -11 0 -14 -3 -6 -6z"/>
<path d="M2013 5887 c-28 -40 -45 -88 -72 -203 -19 -83 -44 -274 -37 -281 2
-2 24 5 49 16 43 19 249 88 327 110 l35 10 -42 -3 c-23 -2 -40 1 -37 6 3 4 12
8 20 8 8 0 13 4 10 8 -2 4 9 14 26 21 16 8 26 16 21 20 -6 3 -12 12 -14 18 -3
9 -25 2 -72 -22 -57 -30 -71 -33 -87 -22 -11 6 -20 17 -20 24 0 6 -10 24 -23
40 -13 15 -26 36 -30 46 -3 9 -11 17 -17 17 -5 0 -10 7 -10 15 0 8 -9 15 -20
15 -18 0 -19 6 -16 53 2 28 11 70 20 91 21 49 17 54 -11 13z"/>
<path d="M9222 5855 c0 -16 2 -22 5 -12 2 9 2 23 0 30 -3 6 -5 -1 -5 -18z"/>
<path d="M6480 5833 c0 -14 2 -15 9 -4 5 7 13 11 19 7 6 -3 13 -2 17 4 4 6 -5
10 -19 10 -18 0 -26 -5 -26 -17z"/>
<path d="M1338 5693 c12 -2 32 -2 45 0 12 2 2 4 -23 4 -25 0 -35 -2 -22 -4z"/>
<path d="M1228 5683 c12 -2 32 -2 45 0 12 2 2 4 -23 4 -25 0 -35 -2 -22 -4z"/>
<path d="M1587 5659 c7 -7 15 -10 18 -7 3 3 -2 9 -12 12 -14 6 -15 5 -6 -5z"/>
<path d="M1318 5637 c-58 -7 -110 -16 -115 -21 -4 -5 9 -5 32 -1 51 10 215 14
210 5 -6 -10 92 -6 102 4 4 5 3 6 -4 3 -6 -4 -13 -3 -15 3 -5 17 -95 19 -210
7z m169 -3 c-3 -3 -12 -4 -19 -1 -8 3 -5 6 6 6 11 1 17 -2 13 -5z"/>
<path d="M8475 5600 c6 -10 72 -30 95 -29 8 0 4 4 -10 9 -68 23 -90 28 -85 20z"/>
<path d="M3770 5550 c-9 -6 -10 -10 -3 -10 6 0 15 5 18 10 8 12 4 12 -15 0z"/>
<path d="M2328 5543 c7 -3 16 -2 19 1 4 3 -2 6 -13 5 -11 0 -14 -3 -6 -6z"/>
<path d="M8330 5535 c-16 -19 0 -19 26 0 16 12 16 14 3 15 -9 0 -22 -7 -29
-15z"/>
<path d="M8678 5543 c7 -3 16 -2 19 1 4 3 -2 6 -13 5 -11 0 -14 -3 -6 -6z"/>
<path d="M8296 5505 c6 -15 140 -62 150 -52 3 2 -16 10 -42 16 -26 7 -60 21
-75 32 -33 23 -40 24 -33 4z"/>
<path d="M5578 5233 c7 -3 16 -2 19 1 4 3 -2 6 -13 5 -11 0 -14 -3 -6 -6z"/>
<path d="M3277 5148 c-48 -82 -185 -204 -337 -300 -85 -55 -285 -152 -395
-193 -55 -20 -109 -41 -120 -45 -35 -15 -267 -68 -351 -81 -82 -12 -180 -5
-139 11 l20 7 -20 5 c-18 5 -18 6 -2 7 10 0 17 4 15 9 -3 4 -10 22 -17 40 -7
17 -17 32 -23 32 -5 0 -7 4 -4 9 4 5 0 12 -6 14 -7 3 -4 6 7 7 18 1 17 3 -5
12 -22 9 -16 12 54 24 44 8 82 17 85 21 3 3 -7 3 -24 0 -16 -4 -94 -12 -173
-18 -311 -27 -574 32 -642 143 -25 41 -25 24 -1 -69 31 -120 83 -203 125 -203
22 0 132 -242 120 -262 -4 -7 -3 -8 5 -4 8 6 10 1 6 -17 -6 -24 -11 -318 -6
-347 2 -8 -5 -62 -15 -120 -12 -72 -17 -165 -18 -295 -1 -104 -4 -174 -7 -155
-7 35 -7 35 -6 -6 1 -34 4 -41 16 -36 12 4 11 -1 -4 -18 -23 -27 -14 -22 74
39 77 54 180 97 269 112 157 28 452 -22 452 -76 0 -8 9 -15 21 -15 11 0 18 -4
15 -9 -3 -5 8 -11 24 -15 32 -6 40 -32 18 -54 -9 -9 -9 -12 0 -12 25 0 11 -18
-25 -34 l-38 -16 61 6 c184 18 409 -77 531 -226 70 -84 73 -88 73 -93 0 -14
-40 -45 -63 -49 -22 -4 -35 2 -65 31 -146 138 -290 200 -443 189 -74 -6 -159
-45 -191 -89 -45 -61 -29 -152 40 -226 47 -50 150 -113 186 -113 29 0 115 28
386 125 136 48 232 75 271 75 81 0 232 -70 344 -158 16 -12 34 -21 42 -18 7 3
15 1 18 -4 4 -6 1 -10 -5 -10 -6 0 -8 -5 -5 -10 3 -5 11 -10 16 -10 6 0 7 5 3
12 -5 8 -2 9 11 4 18 -7 18 -6 1 13 -13 15 -14 20 -4 25 7 3 2 3 -11 0 -16 -4
-21 -3 -17 5 5 7 -2 11 -18 11 -25 0 -30 9 -29 47 0 6 -6 14 -14 17 -8 3 -11
1 -8 -4 3 -6 -1 -10 -10 -10 -10 0 -13 5 -9 11 5 9 -1 10 -20 5 -16 -4 -26 -2
-26 4 0 6 -4 9 -9 6 -18 -12 -36 161 -36 344 1 135 6 213 19 287 l19 102 31
-23 c52 -40 285 -148 272 -127 -3 4 -36 21 -73 36 -89 38 -134 65 -127 76 3 5
-3 6 -12 2 -13 -5 -15 -3 -9 7 6 10 4 12 -9 7 -9 -4 -15 -3 -11 2 3 6 -9 18
-25 28 -39 22 -38 29 30 234 82 251 194 453 362 654 58 70 88 98 109 102 19 4
29 12 29 24 0 45 274 269 530 432 50 33 90 61 87 63 -7 7 -329 -139 -438 -199
-108 -59 -203 -127 -322 -229 -38 -32 -101 -81 -140 -108 -84 -57 -138 -105
-201 -178 -54 -62 -58 -59 -15 12 52 85 159 217 228 283 58 55 63 62 41 61
-14 0 -52 0 -85 1 l-60 1 -16 58 c-81 280 -122 418 -129 425 -4 5 -19 -11 -33
-35z m8 -323 c89 -267 110 -370 80 -395 -13 -10 -15 -9 -15 10 0 20 -45 191
-101 382 -24 82 -36 167 -22 153 6 -5 32 -73 58 -150z m-206 -57 c34 -106 99
-337 125 -451 24 -102 25 -110 10 -145 l-16 -37 -19 60 c-20 62 -131 457 -157
558 -13 51 -13 60 -1 68 28 17 38 8 58 -53z m-229 -44 c11 -26 29 -74 39 -108
11 -33 38 -119 61 -191 69 -215 140 -467 140 -495 0 -15 -9 -37 -19 -49 l-19
-22 -16 48 c-8 26 -29 95 -45 153 -16 58 -62 211 -101 340 -43 140 -72 251
-71 275 1 48 5 95 8 95 1 0 11 -21 23 -46z m-217 -279 c96 -297 207 -691 237
-843 20 -106 35 -227 24 -204 -5 10 -9 9 -20 -5 -7 -10 -14 -25 -14 -33 0 -8
-9 -26 -19 -39 l-19 -25 -32 105 c-85 281 -130 423 -243 762 -98 296 -119 369
-108 376 8 5 10 14 5 22 -6 11 -5 12 7 3 8 -6 25 -8 39 -3 21 6 11 14 -13 10
-5 -1 -6 3 -2 8 4 7 15 7 32 0 19 -7 31 -6 47 5 12 8 24 11 27 8 4 -4 27 -70
52 -147z m-700 68 c-7 -2 -19 -2 -25 0 -7 3 -2 5 12 5 14 0 19 -2 13 -5z
m-403 -431 c0 -4 -11 -23 -25 -42 -14 -19 -25 -27 -25 -19 0 8 10 26 23 41 24
30 27 32 27 20z m-63 -114 c-3 -8 -6 -5 -6 6 -1 11 2 17 5 13 3 -3 4 -12 1
-19z m1883 -1218 c0 -5 -4 -10 -9 -10 -6 0 -13 5 -16 10 -3 6 1 10 9 10 9 0
16 -4 16 -10z"/>
<path d="M1384 4964 c-9 -60 12 -103 64 -132 44 -24 140 -46 167 -39 13 3 8 5
-13 6 -18 0 -44 8 -57 17 -13 9 -28 13 -33 10 -11 -7 -72 13 -72 22 0 4 17 8
37 9 26 1 33 -1 23 -7 -13 -8 -13 -10 1 -10 11 0 17 9 17 25 0 16 -6 25 -17
25 -13 0 -13 2 -2 9 11 7 10 10 -5 13 -10 2 19 3 66 2 l85 -3 -65 9 c-81 10
-145 35 -170 67 l-19 24 -7 -47z m13 -36 c-3 -8 -6 -5 -6 6 -1 11 2 17 5 13 3
-3 4 -12 1 -19z m68 -28 c-3 -5 6 -12 20 -16 33 -8 26 -15 -19 -19 -34 -3 -67
17 -52 32 3 3 6 1 6 -6 0 -9 7 -8 22 3 26 18 32 20 23 6z"/>
<path d="M1436 4882 c-2 -4 7 -9 22 -10 21 -1 24 0 12 8 -18 12 -27 12 -34 2z"/>
<path d="M4369 4957 l-24 -10 25 -5 c14 -2 76 -17 138 -33 112 -29 170 -37
127 -19 l-20 9 20 1 c22 2 -123 45 -196 58 -28 5 -55 5 -70 -1z m226 -47 c14
-7 8 -8 -20 -3 -22 3 -42 7 -44 9 -9 8 45 2 64 -6z"/>
<path d="M1678 4903 c17 -2 47 -2 65 0 17 2 3 4 -33 4 -36 0 -50 -2 -32 -4z"/>
<path d="M4668 4893 c7 -3 16 -2 19 1 4 3 -2 6 -13 5 -11 0 -14 -3 -6 -6z"/>
<path d="M1658 4783 c7 -3 16 -2 19 1 4 3 -2 6 -13 5 -11 0 -14 -3 -6 -6z"/>
<path d="M8940 4775 c0 -5 5 -17 10 -25 5 -8 10 -10 10 -5 0 6 -5 17 -10 25
-5 8 -10 11 -10 5z"/>
<path d="M8194 4678 c-82 -27 -50 -118 42 -118 33 0 82 29 90 52 18 59 -49 93
-132 66z m51 -8 c-9 -14 8 -12 24 3 11 10 13 9 8 -4 -4 -12 -1 -15 12 -12 12
3 20 -2 24 -16 4 -18 2 -20 -21 -15 -19 4 -23 3 -13 -4 15 -11 7 -32 -12 -32
-7 0 -6 4 3 10 13 8 13 10 -2 10 -9 0 -19 -4 -22 -9 -9 -14 -55 11 -49 26 4 9
0 11 -11 7 -21 -8 -20 -20 2 -33 9 -6 12 -11 6 -11 -6 0 -17 6 -23 14 -17 21
13 64 47 69 15 2 28 5 30 6 2 0 0 -3 -3 -9z"/>
<path d="M8228 4653 c6 -2 10 -9 6 -14 -3 -5 2 -9 12 -9 13 0 14 3 4 15 -7 8
-18 15 -24 14 -7 0 -6 -2 2 -6z"/>
<path d="M8210 4626 c0 -2 7 -9 15 -16 9 -7 15 -8 15 -2 0 5 -7 12 -15 16 -8
3 -15 4 -15 2z"/>
<path d="M7981 4654 c0 -11 3 -14 6 -6 3 7 2 16 -1 19 -3 4 -6 -2 -5 -13z"/>
<path d="M7991 4483 c-6 -10 -11 -13 -11 -8 -1 25 -20 -24 -20 -52 0 -81 140
-86 171 -6 6 17 6 30 -2 39 -9 11 -17 9 -47 -11 -27 -18 -40 -22 -54 -14 -10
5 -18 14 -18 20 0 6 -4 7 -10 4 -5 -3 -7 0 -4 8 3 8 20 19 37 25 l32 10 -32 1
c-21 1 -36 -5 -42 -16z"/>
<path d="M8377 4408 c-7 -19 10 -55 30 -66 28 -14 93 -13 109 2 11 12 11 15
-1 20 -8 3 -14 0 -12 -7 1 -7 -11 -12 -33 -13 -51 -2 -72 5 -66 22 3 9 1 12
-4 9 -10 -6 -14 7 -11 33 1 6 0 12 -2 12 -3 0 -7 -6 -10 -12z"/>
<path d="M8800 4233 c0 -6 -18 -18 -40 -27 -22 -9 -40 -20 -40 -26 0 -25 -74
4 -89 35 -8 16 -10 17 -10 3 -1 -25 47 -58 86 -58 19 0 48 8 64 17 28 17 47
49 35 60 -3 4 -6 2 -6 -4z"/>
<path d="M9274 4203 c14 -12 29 -23 33 -23 4 1 -2 9 -14 19 -12 10 -20 21 -18
23 3 3 -2 5 -11 5 -11 0 -8 -7 10 -24z"/>
<path d="M9316 4150 c4 -8 9 -25 11 -37 3 -13 9 -23 14 -23 5 0 6 -6 3 -14 -8
-21 16 -63 26 -46 5 7 5 20 2 29 -4 10 4 8 27 -8 25 -18 30 -26 19 -32 -7 -5
-8 -9 -2 -9 22 0 23 14 2 37 -22 24 -13 33 12 11 12 -11 12 -10 1 4 -7 10 -23
15 -39 14 -20 -2 -30 3 -40 23 -7 14 -12 35 -9 46 2 15 -2 21 -15 21 -13 0
-16 -5 -12 -16z m48 -96 c3 -8 2 -12 -4 -9 -6 3 -10 10 -10 16 0 14 7 11 14
-7z"/>
<path d="M8291 4139 c-2 -40 28 -69 74 -74 38 -4 38 -4 8 4 -42 11 -65 30 -59
48 3 8 2 11 -3 8 -5 -3 -12 5 -14 17 -4 21 -4 20 -6 -3z"/>
<path d="M9355 4150 c-3 -5 -1 -10 4 -10 6 0 11 5 11 10 0 6 -2 10 -4 10 -3 0
-8 -4 -11 -10z"/>
<path d="M8440 4098 c-12 -22 -12 -22 6 -6 10 10 15 20 12 24 -4 3 -12 -5 -18
-18z"/>
<path d="M8623 4043 c4 -16 1 -20 -11 -16 -11 5 -14 2 -10 -8 7 -18 -22 -39
-67 -50 -27 -6 -28 -7 -5 -8 33 -1 104 40 108 63 2 10 -2 23 -8 30 -10 8 -12
6 -7 -11z"/>
<path d="M8982 3995 c0 -16 2 -22 5 -12 2 9 2 23 0 30 -3 6 -5 -1 -5 -18z"/>
<path d="M8835 3970 c10 -11 20 -20 22 -20 2 0 -2 9 -9 20 -7 11 -17 20 -22
20 -5 0 -1 -9 9 -20z"/>
<path d="M9500 3979 c0 -5 5 -7 10 -4 6 3 10 8 10 11 0 2 -4 4 -10 4 -5 0 -10
-5 -10 -11z"/>
<path d="M8868 3973 c6 -2 18 -2 25 0 6 3 1 5 -13 5 -14 0 -19 -2 -12 -5z"/>
<path d="M8923 3957 c18 -15 18 -16 -5 -20 -20 -4 -20 -4 -2 -6 11 0 29 6 40
14 16 12 17 14 2 15 -9 0 -25 3 -35 6 -17 5 -17 5 0 -9z"/>
<path d="M4681 3314 c0 -11 3 -14 6 -6 3 7 2 16 -1 19 -3 4 -6 -2 -5 -13z"/>
<path d="M4672 3265 c0 -16 2 -22 5 -12 2 9 2 23 0 30 -3 6 -5 -1 -5 -18z"/>
<path d="M1335 3230 c-10 -11 -16 -22 -14 -24 2 -2 12 7 22 20 22 29 17 32 -8
4z"/>
<path d="M1300 3225 c-7 -9 -11 -17 -9 -20 3 -2 10 5 17 15 14 24 10 26 -8 5z"/>
<path d="M1303 3183 c-15 -5 -17 -23 -4 -23 5 0 11 7 15 15 3 8 4 15 3 14 -1
0 -8 -3 -14 -6z"/>
<path d="M3242 2940 c0 -14 3 -38 7 -55 7 -29 7 -29 14 14 4 24 5 46 2 49 -3
3 -6 -6 -6 -19 -1 -21 -2 -21 -9 6 -7 27 -8 27 -8 5z"/>
<path d="M3270 2890 c0 -5 5 -10 11 -10 5 0 7 5 4 10 -3 6 -8 10 -11 10 -2 0
-4 -4 -4 -10z"/>
<path d="M8230 2656 c0 -2 8 -10 18 -17 15 -13 16 -12 3 4 -13 16 -21 21 -21
13z"/>
<path d="M8277 2598 c6 -31 -50 -102 -95 -121 l-33 -13 58 0 c32 -1 70 -3 85
-6 l27 -5 -5 66 c-3 45 -11 72 -23 85 -18 18 -18 17 -14 -6z"/>
<path d="M8511 2524 c0 -11 3 -14 6 -6 3 7 2 16 -1 19 -3 4 -6 -2 -5 -13z"/>
<path d="M8536 2513 c-3 -10 -10 -29 -16 -42 -9 -20 -8 -22 4 -12 8 7 17 23
21 38 7 29 1 42 -9 16z"/>
<path d="M8115 2450 c-3 -5 -2 -10 4 -10 5 0 13 5 16 10 3 6 2 10 -4 10 -5 0
-13 -4 -16 -10z"/>
<path d="M7896 2419 c-4 -21 0 -38 12 -54 21 -30 29 -31 37 -5 3 11 21 24 38
29 l32 10 -35 -1 c-55 -1 -60 1 -60 21 0 33 -17 33 -24 0z"/>
<path d="M8480 2432 c-8 -4 -41 -24 -74 -46 -41 -26 -61 -35 -66 -26 -4 6 -19
18 -33 25 -26 13 -27 13 -27 -12 0 -21 -3 -24 -17 -17 -25 13 -153 9 -186 -4
-26 -11 -27 -13 -14 -39 8 -16 18 -38 21 -50 6 -19 4 -21 -16 -17 -87 18 -122
23 -126 19 -3 -3 1 -5 9 -5 11 -1 10 -3 -3 -13 -14 -12 -13 -14 15 -26 18 -8
39 -20 48 -28 14 -12 23 -11 63 7 26 11 62 20 80 20 52 0 127 30 174 69 24 20
60 47 80 60 37 24 58 44 81 74 15 18 14 19 -9 9z"/>
<path d="M7535 2390 c-19 -8 -19 -9 2 -9 12 -1 25 4 28 9 7 12 -2 12 -30 0z"/>
<path d="M2526 2372 c-6 -11 17 -32 56 -51 15 -8 25 -19 21 -24 -3 -6 -1 -7 4
-4 11 7 126 -98 156 -142 14 -21 17 -22 14 -6 -7 35 -19 55 -33 55 -8 0 -14 9
-14 19 0 11 -5 23 -12 27 -7 5 -8 3 -3 -6 5 -9 4 -11 -4 -6 -6 4 -9 11 -6 16
11 18 -19 50 -40 44 -16 -4 -17 -3 -5 5 8 5 11 13 7 17 -3 4 -14 1 -22 -6 -9
-7 -15 -9 -14 -4 3 20 -2 34 -13 34 -6 0 -19 6 -27 14 -22 19 -58 29 -65 18z"/>
<path d="M2745 2220 c3 -5 8 -10 11 -10 2 0 4 5 4 10 0 6 -5 10 -11 10 -5 0
-7 -4 -4 -10z"/>
<path d="M7747 2223 c-4 -3 -7 -11 -7 -17 0 -6 5 -5 12 2 6 6 9 14 7 17 -3 3
-9 2 -12 -2z"/>
<path d="M8333 2203 c9 -2 25 -2 35 0 9 3 1 5 -18 5 -19 0 -27 -2 -17 -5z"/>
<path d="M2770 2190 c0 -5 5 -10 10 -10 6 0 10 5 10 10 0 6 -4 10 -10 10 -5 0
-10 -4 -10 -10z"/>
<path d="M7078 2149 c-35 -61 -17 -88 70 -107 55 -12 170 -17 160 -6 -4 3 -21
8 -39 11 -18 2 -43 9 -56 14 -17 6 -22 6 -17 -2 8 -14 -28 -3 -70 21 -27 15
-31 22 -29 59 1 22 1 41 0 41 -1 0 -10 -14 -19 -31z"/>
<path d="M6957 2153 c-4 -3 -7 -23 -7 -44 0 -29 6 -42 26 -58 35 -28 53 -27
27 2 -23 25 -46 85 -37 98 6 11 0 12 -9 2z"/>
<path d="M7264 2068 c-3 -4 15 -8 40 -8 25 0 46 2 46 4 0 8 -82 11 -86 4z"/>
<path d="M7398 2073 c7 -3 16 -2 19 1 4 3 -2 6 -13 5 -11 0 -14 -3 -6 -6z"/>
<path d="M3355 2060 c-3 -6 1 -7 9 -4 18 7 21 14 7 14 -6 0 -13 -4 -16 -10z"/>
<path d="M3236 2005 c-27 -19 -45 -35 -39 -35 7 0 25 11 41 25 17 14 35 25 41
25 6 0 11 5 11 10 0 14 1 14 -54 -25z"/>
<path d="M3087 1913 c-4 -3 -7 -11 -7 -17 0 -6 5 -5 12 2 6 6 9 14 7 17 -3 3
-9 2 -12 -2z"/>
<path d="M6615 9090 c20 -23 29 -21 19 4 -3 9 -13 16 -22 16 -13 0 -12 -3 3
-20z"/>
<path d="M6544 9088 c-4 -6 -3 -8 3 -5 5 3 21 0 36 -8 15 -8 27 -10 27 -5 0
10 -33 30 -49 30 -5 0 -13 -5 -17 -12z"/>
<path d="M6615 9050 c-3 -5 -1 -10 4 -10 6 0 11 5 11 10 0 6 -2 10 -4 10 -3 0
-8 -4 -11 -10z"/>
<path d="M6750 3905 c-147 -27 -190 -46 -301 -130 -83 -63 -128 -123 -158
-211 -30 -92 -23 -152 29 -221 51 -67 85 -88 172 -108 98 -22 197 -19 312 11
154 39 359 145 340 176 -4 6 -3 8 3 5 22 -14 92 120 94 177 0 26 2 28 9 11 6
-15 9 -6 9 33 1 63 -19 115 -62 161 -60 63 -104 84 -207 98 -114 15 -155 15
-240 -2z m460 -355 c0 -5 -2 -10 -4 -10 -3 0 -8 5 -11 10 -3 6 -1 10 4 10 6 0
11 -4 11 -10z"/>
<path d="M9338 3443 c7 -3 16 -2 19 1 4 3 -2 6 -13 5 -11 0 -14 -3 -6 -6z"/>
<path d="M5218 773 c12 -2 32 -2 45 0 12 2 2 4 -23 4 -25 0 -35 -2 -22 -4z"/>
<path d="M1370 2315 c0 -8 4 -15 10 -15 5 0 7 7 4 15 -4 8 -8 15 -10 15 -2 0
-4 -7 -4 -15z"/>
<path d="M1380 2280 c-13 -9 -13 -11 0 -20 8 -5 20 -9 25 -9 6 0 4 3 -3 6 -10
4 -10 8 -1 19 13 16 1 18 -21 4z"/>
<path d="M4318 2163 c7 -3 16 -2 19 1 4 3 -2 6 -13 5 -11 0 -14 -3 -6 -6z"/>
<path d="M4886 1973 c-6 -14 -5 -15 5 -6 7 7 10 15 7 18 -3 3 -9 -2 -12 -12z"/>
<path d="M5012 1545 c23 -27 3 -54 -43 -57 -19 -2 -37 -7 -41 -13 -5 -6 -8 -5
-8 4 0 8 -6 11 -16 7 -12 -4 -15 -2 -10 9 18 44 17 50 -3 26 -28 -32 -27 -76
4 -106 24 -25 39 -28 105 -26 39 2 90 47 90 80 0 23 -25 53 -65 77 -30 18 -30
18 -13 -1z"/>
<path d="M4633 1363 c9 -2 23 -2 30 0 6 3 -1 5 -18 5 -16 0 -22 -2 -12 -5z"/>
<path d="M4305 1278 c-33 -17 -45 -40 -45 -80 0 -36 3 -40 37 -55 47 -19 125
-13 153 12 26 24 27 86 2 108 -23 21 -33 22 -26 2 4 -8 1 -22 -6 -30 -16 -19
-106 -21 -113 -2 -3 6 -6 3 -6 -7 -1 -14 -4 -17 -11 -10 -16 16 -2 41 33 58
18 8 25 16 17 15 -8 0 -24 -5 -35 -11z"/>
<path d="M4388 1283 c7 -3 16 -2 19 1 4 3 -2 6 -13 5 -11 0 -14 -3 -6 -6z"/>
</g>
</svg>
